<!--
Generated from code2flow.com using this code:

You need a photo!;
if(Do you have a photo?){
  if(Is your photo on this computer?){
    Upload;
    Confirm photo;
  }else{
  if(Do you have a camera on this device?){
    Take a photo with your device;
    Confirm photo;
  }else{
    if(Do you have a digital camera?){
      Take photo with camera (guidance);
      Upload;
      Confirm photo;
    }else{
      You need a photo from a shop;
    }
  }
  }

}else{
  if(Do you have a camera on this device?){
    Take a photo with your device;
    Confirm photo;
  }else{
    if(Do you have a digital camera?){
      Take photo with camera (guidance);
      Upload;
      Confirm photo;
    }else{
      You need a photo from a shop;
    }
  }
}

 -->

<svg xmlns="http://www.w3.org/2000/svg" xmlns:xlink="http://www.w3.org/1999/xlink" width="617pt" height="461pt" viewBox="0.00 0.00 617 460.83"><defs><radialGradient id="g-terminatorpu60s4rb222g5knpb3ayvi" cx="0.5" cy="0.5" fx="0.9" fy="0.9" r="1" x1="0%" x2="0%" y1="100%" y2="0%" spreadMethod="pad"><stop offset="0%" stop-color="#C32F06" stop-opacity="1"/><stop offset="100%" stop-color="#C32F06" stop-opacity="1"/></radialGradient><radialGradient id="g-decisionpu60s4rb222g5knpb3ayvi" cx="0.5" cy="0.5" fx="0.9" fy="0.9" r="1" x1="0%" x2="0%" y1="100%" y2="0%" spreadMethod="pad"><stop offset="0%" stop-color="#d1461b" stop-opacity="1"/><stop offset="100%" stop-color="#d1461b" stop-opacity="1"/></radialGradient><radialGradient id="g-processpu60s4rb222g5knpb3ayvi" cx="0.5" cy="0.5" fx="0.9" fy="0.9" r="1" x1="0%" x2="0%" y1="100%" y2="0%" spreadMethod="pad"><stop offset="0%" stop-color="#3f51b5" stop-opacity="1"/><stop offset="100%" stop-color="#3f51b5" stop-opacity="1"/></radialGradient><radialGradient id="g-defaultpu60s4rb222g5knpb3ayvi" cx="0.5" cy="0.5" fx="0.9" fy="0.9" r="1" x1="0%" x2="0%" y1="100%" y2="0%" spreadMethod="pad"><stop offset="0%" stop-color="#005100" stop-opacity="1"/><stop offset="100%" stop-color="#005100" stop-opacity="1"/></radialGradient><radialGradient id="g-modulepu60s4rb222g5knpb3ayvi" cx="0.5" cy="0.5" fx="0.9" fy="0.9" r="1" x1="0%" x2="0%" y1="100%" y2="0%" spreadMethod="pad"><stop offset="0%" stop-color="#009688" stop-opacity="1"/><stop offset="100%" stop-color="#009688" stop-opacity="1"/></radialGradient><radialGradient id="g-dataiopu60s4rb222g5knpb3ayvi" cx="0.5" cy="0.5" fx="0.9" fy="0.9" r="1" x1="0%" x2="0%" y1="100%" y2="0%" spreadMethod="pad"><stop offset="0%" stop-color="#607d8b" stop-opacity="1"/><stop offset="100%" stop-color="#607d8b" stop-opacity="1"/></radialGradient><radialGradient id="g-preparationpu60s4rb222g5knpb3ayvi" cx="0.5" cy="0.5" fx="0.9" fy="0.9" r="1" x1="0%" x2="0%" y1="100%" y2="0%" spreadMethod="pad"><stop offset="0%" stop-color="#607d8b" stop-opacity="1"/><stop offset="100%" stop-color="#607d8b" stop-opacity="1"/></radialGradient><radialGradient id="g-commentpu60s4rb222g5knpb3ayvi" cx="0.5" cy="0.5" fx="0.9" fy="0.9" r="1" x1="0%" x2="0%" y1="100%" y2="0%" spreadMethod="pad"><stop offset="0%" stop-color="#ffab40" stop-opacity="1"/><stop offset="100%" stop-color="#ffab40" stop-opacity="1"/></radialGradient><radialGradient id="g-manualpu60s4rb222g5knpb3ayvi" cx="0.5" cy="0.5" fx="0.9" fy="0.9" r="1" x1="0%" x2="0%" y1="100%" y2="0%" spreadMethod="pad"><stop offset="0%" stop-color="#673ab7" stop-opacity="1"/><stop offset="100%" stop-color="#673ab7" stop-opacity="1"/></radialGradient></defs><g id="page0,1_graph0" class="graph" transform="scale(0.78863 0.78863) rotate(0) translate(4 574)"><title>FlowChart</title><!-- terminator_block_1 --><g id="node1" class="node"><title>terminator_block_1</title><ellipse fill="url(#g-terminatorpu60s4rb222g5knpb3ayvi)" stroke="#C32F06" cx="340.529" cy="-552" rx="59.4099" ry="18"/><text text-anchor="start" x="298.029" y="-549.5" font-family="Open Sans, Noto Sans SC, Noto Sans TC, Noto Sans JP, Noto Sans KR" font-size="10.00" fill="white">You need a photo!</text></g><!-- ifs_block_2 --><g id="node2" class="node"><title>ifs_block_2</title><polygon fill="url(#g-decisionpu60s4rb222g5knpb3ayvi)" stroke="#d1461b" points="340.529,-503 243.225,-485 340.529,-467 437.833,-485 340.529,-503"/><text text-anchor="start" x="290.029" y="-482.5" font-family="Open Sans, Noto Sans SC, Noto Sans TC, Noto Sans JP, Noto Sans KR" font-size="10.00" fill="white">Do you have a photo?</text></g><!-- terminator_block_1&#45;&gt;ifs_block_2 --><g id="edge1" class="edge"><title>terminator_block_1-&gt;ifs_block_2</title><path fill="none" stroke="#000000" d="M340.529,-533.692C340.529,-527.488 340.529,-520.402 340.529,-513.592"/><polygon fill="#000000" stroke="#000000" points="344.029,-513.286 340.529,-503.286 337.029,-513.286 344.029,-513.286"/></g><!-- ifs_block_3 --><g id="node3" class="node"><title>ifs_block_3</title><polygon fill="url(#g-decisionpu60s4rb222g5knpb3ayvi)" stroke="#d1461b" points="136.529,-426 -0.0292063,-408 136.529,-390 273.088,-408 136.529,-426"/><text text-anchor="start" x="62.5292" y="-405.5" font-family="Open Sans, Noto Sans SC, Noto Sans TC, Noto Sans JP, Noto Sans KR" font-size="10.00" fill="white">Is your photo on this computer?</text></g><!-- ifs_block_2&#45;&gt;ifs_block_3 --><g id="edge2" class="edge"><title>ifs_block_2-&gt;ifs_block_3</title><path fill="none" stroke="#000000" d="M308.205,-472.799C274.026,-459.898 219.854,-439.451 181.515,-424.98"/><polygon fill="#000000" stroke="#000000" points="182.722,-421.695 172.131,-421.438 180.25,-428.244 182.722,-421.695"/><text text-anchor="start" x="251.529" y="-445" font-family="Open Sans, Noto Sans SC, Noto Sans TC, Noto Sans JP, Noto Sans KR" font-weight="bold" font-size="10.00" fill="#000000"> Yes </text><polyline fill="none" stroke="#000000" points="273.529,-441 225.21,-441 "/></g><!-- ifs_block_6 --><g id="node5" class="node"><title>ifs_block_6</title><polygon fill="url(#g-decisionpu60s4rb222g5knpb3ayvi)" stroke="#d1461b" points="409.529,-349 251.181,-331 409.529,-313 567.878,-331 409.529,-349"/><text text-anchor="start" x="322.529" y="-328.5" font-family="Open Sans, Noto Sans SC, Noto Sans TC, Noto Sans JP, Noto Sans KR" font-size="10.00" fill="white">Do you have a camera on this device?</text></g><!-- ifs_block_2&#45;&gt;ifs_block_6 --><g id="edge9" class="edge"><title>ifs_block_2-&gt;ifs_block_6</title><path fill="none" stroke="#000000" d="M348.045,-468.226C360.01,-441.521 383.488,-389.122 397.716,-357.365"/><polygon fill="#000000" stroke="#000000" points="400.917,-358.78 401.812,-348.223 394.529,-355.918 400.917,-358.78"/><text text-anchor="start" x="383.529" y="-406.5" font-family="Open Sans, Noto Sans SC, Noto Sans TC, Noto Sans JP, Noto Sans KR" font-weight="bold" font-size="10.00" fill="#000000"> No </text><polyline fill="none" stroke="#000000" points="402.529,-402.5 377.188,-402.5 "/></g><!-- ifs_block_3&#45;&gt;ifs_block_6 --><g id="edge4" class="edge"><title>ifs_block_3-&gt;ifs_block_6</title><path fill="none" stroke="#000000" d="M180.089,-395.714C227.226,-382.419 302.523,-361.181 353.906,-346.689"/><polygon fill="#000000" stroke="#000000" points="355.174,-349.968 363.848,-343.884 353.274,-343.23 355.174,-349.968"/><text text-anchor="start" x="289.529" y="-368" font-family="Open Sans, Noto Sans SC, Noto Sans TC, Noto Sans JP, Noto Sans KR" font-weight="bold" font-size="10.00" fill="#000000"> No </text><polyline fill="none" stroke="#000000" points="308.529,-364 294.555,-364 "/></g><!-- process_block_19 --><g id="node10" class="node"><title>process_block_19</title><polygon fill="url(#g-processpu60s4rb222g5knpb3ayvi)" stroke="#3f51b5" points="585.529,-103 531.529,-103 531.529,-67 585.529,-67 585.529,-103"/><text text-anchor="start" x="542.029" y="-82.5" font-family="Open Sans, Noto Sans SC, Noto Sans TC, Noto Sans JP, Noto Sans KR" font-size="10.00" fill="white">Upload</text></g><!-- ifs_block_3&#45;&gt;process_block_19 --><g id="edge3" class="edge"><title>ifs_block_3-&gt;process_block_19</title><path fill="none" stroke="#000000" d="M128.711,-390.966C122.387,-375.621 114.529,-352.272 114.529,-331 114.529,-331 114.529,-331 114.529,-152 114.529,-110.977 414.7,-92.1187 521.424,-86.71"/><polygon fill="#000000" stroke="#000000" points="521.609,-90.2052 531.423,-86.2141 521.262,-83.2138 521.609,-90.2052"/><text text-anchor="start" x="114.529" y="-252.5" font-family="Open Sans, Noto Sans SC, Noto Sans TC, Noto Sans JP, Noto Sans KR" font-weight="bold" font-size="10.00" fill="#000000"> Yes </text><polyline fill="none" stroke="#000000" points="136.529,-248.5 114.529,-248.5 "/></g><!-- terminator_block_5 --><g id="node4" class="node"><title>terminator_block_5</title><ellipse fill="url(#g-terminatorpu60s4rb222g5knpb3ayvi)" stroke="#C32F06" cx="683.529" cy="-18" rx="49.3954" ry="18"/><text text-anchor="start" x="649.529" y="-15.5" font-family="Open Sans, Noto Sans SC, Noto Sans TC, Noto Sans JP, Noto Sans KR" font-size="10.00" fill="white">Confirm photo</text></g><!-- process_block_7 --><g id="node6" class="node"><title>process_block_7</title><polygon fill="url(#g-processpu60s4rb222g5knpb3ayvi)" stroke="#3f51b5" points="768.029,-221 615.029,-221 615.029,-185 768.029,-185 768.029,-221"/><text text-anchor="start" x="622.029" y="-200.5" font-family="Open Sans, Noto Sans SC, Noto Sans TC, Noto Sans JP, Noto Sans KR" font-size="10.00" fill="white">Take a photo with your device</text></g><!-- ifs_block_6&#45;&gt;process_block_7 --><g id="edge5" class="edge"><title>ifs_block_6-&gt;process_block_7</title><path fill="none" stroke="#000000" d="M451.951,-317.782C485.111,-306.921 532.044,-290.375 571.529,-272 600.316,-258.604 631.352,-240.657 654.648,-226.424"/><polygon fill="#000000" stroke="#000000" points="656.5,-229.394 663.177,-221.168 652.827,-223.435 656.5,-229.394"/><text text-anchor="start" x="534.529" y="-291" font-family="Open Sans, Noto Sans SC, Noto Sans TC, Noto Sans JP, Noto Sans KR" font-weight="bold" font-size="10.00" fill="#000000"> Yes </text><polyline fill="none" stroke="#000000" points="556.529,-287 536.918,-287 "/></g><!-- ifs_block_17 --><g id="node9" class="node"><title>ifs_block_17</title><polygon fill="url(#g-decisionpu60s4rb222g5knpb3ayvi)" stroke="#d1461b" points="409.529,-272 281.12,-254 409.529,-236 537.938,-254 409.529,-272"/><text text-anchor="start" x="340.529" y="-251.5" font-family="Open Sans, Noto Sans SC, Noto Sans TC, Noto Sans JP, Noto Sans KR" font-size="10.00" fill="white">Do you have a digital camera?</text></g><!-- ifs_block_6&#45;&gt;ifs_block_17 --><g id="edge7" class="edge"><title>ifs_block_6-&gt;ifs_block_17</title><path fill="none" stroke="#000000" d="M409.529,-312.752C409.529,-303.642 409.529,-292.417 409.529,-282.228"/><polygon fill="#000000" stroke="#000000" points="413.029,-282.117 409.529,-272.117 406.029,-282.117 413.029,-282.117"/><text text-anchor="start" x="409.529" y="-291" font-family="Open Sans, Noto Sans SC, Noto Sans TC, Noto Sans JP, Noto Sans KR" font-weight="bold" font-size="10.00" fill="#000000"> No </text><polyline fill="none" stroke="#000000" points="428.529,-287 409.529,-287 "/></g><!-- process_block_7&#45;&gt;terminator_block_5 --><g id="edge6" class="edge"><title>process_block_7-&gt;terminator_block_5</title><path fill="none" stroke="#000000" d="M690.748,-184.925C689.35,-152.596 686.412,-84.6637 684.747,-46.171"/><polygon fill="#000000" stroke="#000000" points="688.243,-45.9882 684.314,-36.1488 681.249,-46.2907 688.243,-45.9882"/></g><!-- process_block_10 --><g id="node7" class="node"><title>process_block_10</title><polygon fill="url(#g-processpu60s4rb222g5knpb3ayvi)" stroke="#3f51b5" points="647.029,-170 470.029,-170 470.029,-134 647.029,-134 647.029,-170"/><text text-anchor="start" x="477.029" y="-149.5" font-family="Open Sans, Noto Sans SC, Noto Sans TC, Noto Sans JP, Noto Sans KR" font-size="10.00" fill="white">Take photo with camera (guidance)</text></g><!-- process_block_10&#45;&gt;process_block_19 --><g id="edge8" class="edge"><title>process_block_10-&gt;process_block_19</title><path fill="none" stroke="#000000" d="M558.529,-133.692C558.529,-127.488 558.529,-120.402 558.529,-113.592"/><polygon fill="#000000" stroke="#000000" points="562.029,-113.286 558.529,-103.286 555.029,-113.286 562.029,-113.286"/></g><!-- terminator_block_13 --><g id="node8" class="node"><title>terminator_block_13</title><ellipse fill="url(#g-terminatorpu60s4rb222g5knpb3ayvi)" stroke="#C32F06" cx="309.529" cy="-152" rx="92.3402" ry="18"/><text text-anchor="start" x="239.029" y="-149.5" font-family="Open Sans, Noto Sans SC, Noto Sans TC, Noto Sans JP, Noto Sans KR" font-size="10.00" fill="white">You need a photo from a shop</text></g><!-- ifs_block_17&#45;&gt;process_block_10 --><g id="edge10" class="edge"><title>ifs_block_17-&gt;process_block_10</title><path fill="none" stroke="#000000" d="M431.515,-238.95C455.797,-222.326 495.225,-195.336 523.716,-175.832"/><polygon fill="#000000" stroke="#000000" points="525.903,-178.576 532.178,-170.039 521.949,-172.8 525.903,-178.576"/><text text-anchor="start" x="506.529" y="-201.5" font-family="Open Sans, Noto Sans SC, Noto Sans TC, Noto Sans JP, Noto Sans KR" font-weight="bold" font-size="10.00" fill="#000000"> Yes </text><polyline fill="none" stroke="#000000" points="528.529,-197.5 491.517,-197.5 "/></g><!-- ifs_block_17&#45;&gt;terminator_block_13 --><g id="edge12" class="edge"><title>ifs_block_17-&gt;terminator_block_13</title><path fill="none" stroke="#000000" d="M393.904,-238.062C377.901,-221.739 352.792,-196.128 334.121,-177.084"/><polygon fill="#000000" stroke="#000000" points="336.562,-174.574 327.062,-169.884 331.564,-179.475 336.562,-174.574"/><text text-anchor="start" x="374.529" y="-201.5" font-family="Open Sans, Noto Sans SC, Noto Sans TC, Noto Sans JP, Noto Sans KR" font-weight="bold" font-size="10.00" fill="#000000"> No </text><polyline fill="none" stroke="#000000" points="393.529,-197.5 355.026,-197.5 "/></g><!-- process_block_19&#45;&gt;terminator_block_5 --><g id="edge11" class="edge"><title>process_block_19-&gt;terminator_block_5</title><path fill="none" stroke="#000000" d="M585.652,-70.462C603.505,-60.8932 627.099,-48.2468 646.648,-37.7682"/><polygon fill="#000000" stroke="#000000" points="648.433,-40.7826 655.593,-32.9735 645.126,-34.613 648.433,-40.7826"/></g></g></svg>
