<!--
Generated from code2flow.com using this code:
I need a pass!;
Start page;
if(GOV.UK - Are you old enough?){
  Start page;
  if(GOV.UK - Find your council){
    Start page;
    if(Renawal?){
      Renewals;
    }else if(Replacement?){
      Replacements;
    }else{
      Prove ID page;
      if(Do you need your pass to arrive quickly?){
             if(Do you have an email address?){
        if(Do you have a photo/camera?){
          Verify;
          if(Do you have a Verify account?){
            Sign in with Verify;
            photo:
            You're eligible;
            if(User agent detect: Is the user on a mobile device?){
              takephoto:
              Take a photo with your device;
              goto confirmphoto;
            }else{
              You need a photo;
                          if(Do you have a digital photo?){
              if(Is your photo on this computer?){
                Upload;
                goto confirmphoto;
              }else{
                if(Do you have a camera on this device?){
                  goto takephoto;
                  goto confirmphoto;
                }else{
                  if(Do you have a digital camera?){
                    Take photo with camera (guidance);
                    Upload;
                    goto confirmphoto;
                  }else{
                    You need a photo from a shop;
                  }
                }
              }

            }else{
              if(Do you have a camera on this device?){
                Take a photo with your device;
                goto confirmphoto;
              }else{
                if(Do you have a digital camera?){
                  Take photo with camera (guidance);
                  Upload;         confirmphoto:
                  Confirm photo;
                  Done;
                }else{
                  You need a photo from a shop;
                }
              }
            }
            }

          }else{
            Sign up with Verify;
            goto photo;
          }
        }else{
          Offline channel;
        }
      }else{
        Offline channel;
      }
      }else{
        if(Have docs?){
          Scan and upload docs;
          goto photo;
        }else{
         Offline channel;
        }
      }
    }
  }else{
    Go to a different council;
  }
}else{
  Not eligible yet;
}



 -->
<svg xmlns="http://www.w3.org/2000/svg" xmlns:xlink="http://www.w3.org/1999/xlink" width="416pt" height="797pt" viewBox="0.00 0.00 415.95 797"><defs><radialGradient id="g-terminator7g5gojy7oyg4xyvqpycik9" cx="0.5" cy="0.5" fx="0.9" fy="0.9" r="1" x1="0%" x2="0%" y1="100%" y2="0%" spreadMethod="pad"><stop offset="0%" stop-color="#C32F06" stop-opacity="1"/><stop offset="100%" stop-color="#C32F06" stop-opacity="1"/></radialGradient><radialGradient id="g-decision7g5gojy7oyg4xyvqpycik9" cx="0.5" cy="0.5" fx="0.9" fy="0.9" r="1" x1="0%" x2="0%" y1="100%" y2="0%" spreadMethod="pad"><stop offset="0%" stop-color="#d1461b" stop-opacity="1"/><stop offset="100%" stop-color="#d1461b" stop-opacity="1"/></radialGradient><radialGradient id="g-process7g5gojy7oyg4xyvqpycik9" cx="0.5" cy="0.5" fx="0.9" fy="0.9" r="1" x1="0%" x2="0%" y1="100%" y2="0%" spreadMethod="pad"><stop offset="0%" stop-color="#3f51b5" stop-opacity="1"/><stop offset="100%" stop-color="#3f51b5" stop-opacity="1"/></radialGradient><radialGradient id="g-default7g5gojy7oyg4xyvqpycik9" cx="0.5" cy="0.5" fx="0.9" fy="0.9" r="1" x1="0%" x2="0%" y1="100%" y2="0%" spreadMethod="pad"><stop offset="0%" stop-color="#005100" stop-opacity="1"/><stop offset="100%" stop-color="#005100" stop-opacity="1"/></radialGradient><radialGradient id="g-module7g5gojy7oyg4xyvqpycik9" cx="0.5" cy="0.5" fx="0.9" fy="0.9" r="1" x1="0%" x2="0%" y1="100%" y2="0%" spreadMethod="pad"><stop offset="0%" stop-color="#009688" stop-opacity="1"/><stop offset="100%" stop-color="#009688" stop-opacity="1"/></radialGradient><radialGradient id="g-dataio7g5gojy7oyg4xyvqpycik9" cx="0.5" cy="0.5" fx="0.9" fy="0.9" r="1" x1="0%" x2="0%" y1="100%" y2="0%" spreadMethod="pad"><stop offset="0%" stop-color="#607d8b" stop-opacity="1"/><stop offset="100%" stop-color="#607d8b" stop-opacity="1"/></radialGradient><radialGradient id="g-preparation7g5gojy7oyg4xyvqpycik9" cx="0.5" cy="0.5" fx="0.9" fy="0.9" r="1" x1="0%" x2="0%" y1="100%" y2="0%" spreadMethod="pad"><stop offset="0%" stop-color="#607d8b" stop-opacity="1"/><stop offset="100%" stop-color="#607d8b" stop-opacity="1"/></radialGradient><radialGradient id="g-comment7g5gojy7oyg4xyvqpycik9" cx="0.5" cy="0.5" fx="0.9" fy="0.9" r="1" x1="0%" x2="0%" y1="100%" y2="0%" spreadMethod="pad"><stop offset="0%" stop-color="#ffab40" stop-opacity="1"/><stop offset="100%" stop-color="#ffab40" stop-opacity="1"/></radialGradient><radialGradient id="g-manual7g5gojy7oyg4xyvqpycik9" cx="0.5" cy="0.5" fx="0.9" fy="0.9" r="1" x1="0%" x2="0%" y1="100%" y2="0%" spreadMethod="pad"><stop offset="0%" stop-color="#673ab7" stop-opacity="1"/><stop offset="100%" stop-color="#673ab7" stop-opacity="1"/></radialGradient></defs><g id="page0,1_graph0" class="graph" transform="scale(0.420382 0.420382) rotate(0) translate(4 1880)"><title>FlowChart</title><!-- terminator_block_1 --><g id="node1" class="node"><title>terminator_block_1</title><ellipse fill="url(#g-terminator7g5gojy7oyg4xyvqpycik9)" stroke="#C32F06" cx="524.037" cy="-1858" rx="46.5087" ry="18"/><text text-anchor="start" x="492.537" y="-1855.5" font-family="Open Sans, Noto Sans SC, Noto Sans TC, Noto Sans JP, Noto Sans KR" font-size="10.00" fill="white">I need a pass!</text></g><!-- process_block_2 --><g id="node2" class="node"><title>process_block_2</title><polygon fill="url(#g-process7g5gojy7oyg4xyvqpycik9)" stroke="#3f51b5" points="554.537,-1809 493.537,-1809 493.537,-1773 554.537,-1773 554.537,-1809"/><text text-anchor="start" x="500.537" y="-1788.5" font-family="Open Sans, Noto Sans SC, Noto Sans TC, Noto Sans JP, Noto Sans KR" font-size="10.00" fill="white">Start page</text></g><!-- terminator_block_1&#45;&gt;process_block_2 --><g id="edge1" class="edge"><title>terminator_block_1-&gt;process_block_2</title><path fill="none" stroke="#000000" d="M524.037,-1839.69C524.037,-1833.49 524.037,-1826.4 524.037,-1819.59"/><polygon fill="#000000" stroke="#000000" points="527.537,-1819.29 524.037,-1809.29 520.537,-1819.29 527.537,-1819.29"/></g><!-- ifs_block_3 --><g id="node3" class="node"><title>ifs_block_3</title><polygon fill="url(#g-decision7g5gojy7oyg4xyvqpycik9)" stroke="#d1461b" points="524.037,-1742 393.133,-1724 524.037,-1706 654.941,-1724 524.037,-1742"/><text text-anchor="start" x="453.537" y="-1721.5" font-family="Open Sans, Noto Sans SC, Noto Sans TC, Noto Sans JP, Noto Sans KR" font-size="10.00" fill="white">GOV.UK - Are you old enough?</text></g><!-- process_block_2&#45;&gt;ifs_block_3 --><g id="edge2" class="edge"><title>process_block_2-&gt;ifs_block_3</title><path fill="none" stroke="#000000" d="M524.037,-1772.69C524.037,-1766.49 524.037,-1759.4 524.037,-1752.59"/><polygon fill="#000000" stroke="#000000" points="527.537,-1752.29 524.037,-1742.29 520.537,-1752.29 527.537,-1752.29"/></g><!-- process_block_4 --><g id="node4" class="node"><title>process_block_4</title><polygon fill="url(#g-process7g5gojy7oyg4xyvqpycik9)" stroke="#3f51b5" points="453.537,-1665 392.537,-1665 392.537,-1629 453.537,-1629 453.537,-1665"/><text text-anchor="start" x="399.537" y="-1644.5" font-family="Open Sans, Noto Sans SC, Noto Sans TC, Noto Sans JP, Noto Sans KR" font-size="10.00" fill="white">Start page</text></g><!-- ifs_block_3&#45;&gt;process_block_4 --><g id="edge3" class="edge"><title>ifs_block_3-&gt;process_block_4</title><path fill="none" stroke="#000000" d="M503.598,-1708.42C489.658,-1697.79 470.912,-1683.5 455.012,-1671.38"/><polygon fill="#000000" stroke="#000000" points="457.071,-1668.55 446.996,-1665.27 452.827,-1674.11 457.071,-1668.55"/><text text-anchor="start" x="480.037" y="-1684" font-family="Open Sans, Noto Sans SC, Noto Sans TC, Noto Sans JP, Noto Sans KR" font-weight="bold" font-size="10.00" fill="#000000"> Yes </text><polyline fill="none" stroke="#000000" points="502.037,-1680 467.351,-1680 "/></g><!-- terminator_block_45 --><g id="node36" class="node"><title>terminator_block_45</title><ellipse fill="url(#g-terminator7g5gojy7oyg4xyvqpycik9)" stroke="#C32F06" cx="572.037" cy="-1647" rx="50.0727" ry="18"/><text text-anchor="start" x="537.537" y="-1644.5" font-family="Open Sans, Noto Sans SC, Noto Sans TC, Noto Sans JP, Noto Sans KR" font-size="10.00" fill="white">Not eligible yet</text></g><!-- ifs_block_3&#45;&gt;terminator_block_45 --><g id="edge43" class="edge"><title>ifs_block_3-&gt;terminator_block_45</title><path fill="none" stroke="#000000" d="M534.452,-1707.29C540.631,-1697.38 548.601,-1684.59 555.611,-1673.35"/><polygon fill="#000000" stroke="#000000" points="558.654,-1675.08 560.974,-1664.75 552.713,-1671.38 558.654,-1675.08"/><text text-anchor="start" x="551.037" y="-1684" font-family="Open Sans, Noto Sans SC, Noto Sans TC, Noto Sans JP, Noto Sans KR" font-weight="bold" font-size="10.00" fill="#000000"> No </text><polyline fill="none" stroke="#000000" points="570.037,-1680 551.585,-1680 "/></g><!-- ifs_block_5 --><g id="node5" class="node"><title>ifs_block_5</title><polygon fill="url(#g-decision7g5gojy7oyg4xyvqpycik9)" stroke="#d1461b" points="423.037,-1598 306.438,-1580 423.037,-1562 539.635,-1580 423.037,-1598"/><text text-anchor="start" x="361.037" y="-1577.5" font-family="Open Sans, Noto Sans SC, Noto Sans TC, Noto Sans JP, Noto Sans KR" font-size="10.00" fill="white">GOV.UK - Find your council</text></g><!-- process_block_4&#45;&gt;ifs_block_5 --><g id="edge4" class="edge"><title>process_block_4-&gt;ifs_block_5</title><path fill="none" stroke="#000000" d="M423.037,-1628.69C423.037,-1622.49 423.037,-1615.4 423.037,-1608.59"/><polygon fill="#000000" stroke="#000000" points="426.537,-1608.29 423.037,-1598.29 419.537,-1608.29 426.537,-1608.29"/></g><!-- process_block_6 --><g id="node6" class="node"><title>process_block_6</title><polygon fill="url(#g-process7g5gojy7oyg4xyvqpycik9)" stroke="#3f51b5" points="327.537,-1521 266.537,-1521 266.537,-1485 327.537,-1485 327.537,-1521"/><text text-anchor="start" x="273.537" y="-1500.5" font-family="Open Sans, Noto Sans SC, Noto Sans TC, Noto Sans JP, Noto Sans KR" font-size="10.00" fill="white">Start page</text></g><!-- ifs_block_5&#45;&gt;process_block_6 --><g id="edge5" class="edge"><title>ifs_block_5-&gt;process_block_6</title><path fill="none" stroke="#000000" d="M399.337,-1565.52C381.373,-1554.54 356.31,-1539.22 335.488,-1526.5"/><polygon fill="#000000" stroke="#000000" points="337.215,-1523.45 326.857,-1521.22 333.565,-1529.42 337.215,-1523.45"/><text text-anchor="start" x="368.037" y="-1540" font-family="Open Sans, Noto Sans SC, Noto Sans TC, Noto Sans JP, Noto Sans KR" font-weight="bold" font-size="10.00" fill="#000000"> Yes </text><polyline fill="none" stroke="#000000" points="390.037,-1536 351.722,-1536 "/></g><!-- terminator_block_44 --><g id="node35" class="node"><title>terminator_block_44</title><ellipse fill="url(#g-terminator7g5gojy7oyg4xyvqpycik9)" stroke="#C32F06" cx="471.037" cy="-1503" rx="75.198" ry="18"/><text text-anchor="start" x="415.037" y="-1500.5" font-family="Open Sans, Noto Sans SC, Noto Sans TC, Noto Sans JP, Noto Sans KR" font-size="10.00" fill="white">Go to a different council</text></g><!-- ifs_block_5&#45;&gt;terminator_block_44 --><g id="edge42" class="edge"><title>ifs_block_5-&gt;terminator_block_44</title><path fill="none" stroke="#000000" d="M433.452,-1563.29C439.587,-1553.45 447.489,-1540.77 454.462,-1529.59"/><polygon fill="#000000" stroke="#000000" points="457.485,-1531.36 459.805,-1521.02 451.544,-1527.65 457.485,-1531.36"/><text text-anchor="start" x="450.037" y="-1540" font-family="Open Sans, Noto Sans SC, Noto Sans TC, Noto Sans JP, Noto Sans KR" font-weight="bold" font-size="10.00" fill="#000000"> No </text><polyline fill="none" stroke="#000000" points="469.037,-1536 450.46,-1536 "/></g><!-- ifs_block_7 --><g id="node7" class="node"><title>ifs_block_7</title><polygon fill="url(#g-decision7g5gojy7oyg4xyvqpycik9)" stroke="#d1461b" points="297.037,-1454 247.802,-1436 297.037,-1418 346.271,-1436 297.037,-1454"/><text text-anchor="start" x="275.537" y="-1433.5" font-family="Open Sans, Noto Sans SC, Noto Sans TC, Noto Sans JP, Noto Sans KR" font-size="10.00" fill="white">Renawal?</text></g><!-- process_block_6&#45;&gt;ifs_block_7 --><g id="edge6" class="edge"><title>process_block_6-&gt;ifs_block_7</title><path fill="none" stroke="#000000" d="M297.037,-1484.69C297.037,-1478.49 297.037,-1471.4 297.037,-1464.59"/><polygon fill="#000000" stroke="#000000" points="300.537,-1464.29 297.037,-1454.29 293.537,-1464.29 300.537,-1464.29"/></g><!-- terminator_block_8 --><g id="node8" class="node"><title>terminator_block_8</title><ellipse fill="url(#g-terminator7g5gojy7oyg4xyvqpycik9)" stroke="#C32F06" cx="250.037" cy="-1359" rx="35.1405" ry="18"/><text text-anchor="start" x="228.037" y="-1356.5" font-family="Open Sans, Noto Sans SC, Noto Sans TC, Noto Sans JP, Noto Sans KR" font-size="10.00" fill="white">Renewals</text></g><!-- ifs_block_7&#45;&gt;terminator_block_8 --><g id="edge7" class="edge"><title>ifs_block_7-&gt;terminator_block_8</title><path fill="none" stroke="#000000" d="M287.524,-1421.28C283.888,-1415.6 279.73,-1409.02 276.037,-1403 272.566,-1397.34 268.903,-1391.23 265.457,-1385.42"/><polygon fill="#000000" stroke="#000000" points="268.373,-1383.47 260.279,-1376.64 262.343,-1387.03 268.373,-1383.47"/><text text-anchor="start" x="276.037" y="-1396" font-family="Open Sans, Noto Sans SC, Noto Sans TC, Noto Sans JP, Noto Sans KR" font-weight="bold" font-size="10.00" fill="#000000"> Yes </text><polyline fill="none" stroke="#000000" points="298.037,-1392 269.404,-1392 "/></g><!-- ifs_block_9 --><g id="node9" class="node"><title>ifs_block_9</title><polygon fill="url(#g-decision7g5gojy7oyg4xyvqpycik9)" stroke="#d1461b" points="421.037,-1377 353.672,-1359 421.037,-1341 488.401,-1359 421.037,-1377"/><text text-anchor="start" x="388.537" y="-1356.5" font-family="Open Sans, Noto Sans SC, Noto Sans TC, Noto Sans JP, Noto Sans KR" font-size="10.00" fill="white">Replacement?</text></g><!-- ifs_block_7&#45;&gt;ifs_block_9 --><g id="edge8" class="edge"><title>ifs_block_7-&gt;ifs_block_9</title><path fill="none" stroke="#000000" d="M315.333,-1424.64C335.524,-1412.1 368.297,-1391.75 392.003,-1377.03"/><polygon fill="#000000" stroke="#000000" points="393.951,-1379.94 400.6,-1371.69 390.258,-1373.99 393.951,-1379.94"/><text text-anchor="start" x="367.037" y="-1396" font-family="Open Sans, Noto Sans SC, Noto Sans TC, Noto Sans JP, Noto Sans KR" font-weight="bold" font-size="10.00" fill="#000000"> No </text><polyline fill="none" stroke="#000000" points="386.037,-1392 367.783,-1392 "/></g><!-- terminator_block_10 --><g id="node10" class="node"><title>terminator_block_10</title><ellipse fill="url(#g-terminator7g5gojy7oyg4xyvqpycik9)" stroke="#C32F06" cx="343.037" cy="-1282" rx="47.8641" ry="18"/><text text-anchor="start" x="310.537" y="-1279.5" font-family="Open Sans, Noto Sans SC, Noto Sans TC, Noto Sans JP, Noto Sans KR" font-size="10.00" fill="white">Replacements</text></g><!-- ifs_block_9&#45;&gt;terminator_block_10 --><g id="edge9" class="edge"><title>ifs_block_9-&gt;terminator_block_10</title><path fill="none" stroke="#000000" d="M406.366,-1344.52C395.372,-1333.66 380.085,-1318.57 367.285,-1305.94"/><polygon fill="#000000" stroke="#000000" points="369.662,-1303.37 360.086,-1298.83 364.744,-1308.35 369.662,-1303.37"/><text text-anchor="start" x="387.037" y="-1319" font-family="Open Sans, Noto Sans SC, Noto Sans TC, Noto Sans JP, Noto Sans KR" font-weight="bold" font-size="10.00" fill="#000000"> Yes </text><polyline fill="none" stroke="#000000" points="409.037,-1315 377.245,-1315 "/></g><!-- process_block_11 --><g id="node11" class="node"><title>process_block_11</title><polygon fill="url(#g-process7g5gojy7oyg4xyvqpycik9)" stroke="#3f51b5" points="537.037,-1300 459.037,-1300 459.037,-1264 537.037,-1264 537.037,-1300"/><text text-anchor="start" x="466.037" y="-1279.5" font-family="Open Sans, Noto Sans SC, Noto Sans TC, Noto Sans JP, Noto Sans KR" font-size="10.00" fill="white">Prove ID page</text></g><!-- ifs_block_9&#45;&gt;process_block_11 --><g id="edge10" class="edge"><title>ifs_block_9-&gt;process_block_11</title><path fill="none" stroke="#000000" d="M435.52,-1344.52C445.91,-1334.13 460.186,-1319.85 472.472,-1307.56"/><polygon fill="#000000" stroke="#000000" points="475.217,-1309.77 479.813,-1300.22 470.267,-1304.82 475.217,-1309.77"/><text text-anchor="start" x="465.037" y="-1319" font-family="Open Sans, Noto Sans SC, Noto Sans TC, Noto Sans JP, Noto Sans KR" font-weight="bold" font-size="10.00" fill="#000000"> No </text><polyline fill="none" stroke="#000000" points="484.037,-1315 465.39,-1315 "/></g><!-- ifs_block_12 --><g id="node12" class="node"><title>ifs_block_12</title><polygon fill="url(#g-decision7g5gojy7oyg4xyvqpycik9)" stroke="#d1461b" points="498.037,-1233 329.044,-1215 498.037,-1197 667.03,-1215 498.037,-1233"/><text text-anchor="start" x="404.537" y="-1212.5" font-family="Open Sans, Noto Sans SC, Noto Sans TC, Noto Sans JP, Noto Sans KR" font-size="10.00" fill="white">Do you need your pass to arrive quickly?</text></g><!-- process_block_11&#45;&gt;ifs_block_12 --><g id="edge11" class="edge"><title>process_block_11-&gt;ifs_block_12</title><path fill="none" stroke="#000000" d="M498.037,-1263.69C498.037,-1257.49 498.037,-1250.4 498.037,-1243.59"/><polygon fill="#000000" stroke="#000000" points="501.537,-1243.29 498.037,-1233.29 494.537,-1243.29 501.537,-1243.29"/></g><!-- ifs_block_13 --><g id="node13" class="node"><title>ifs_block_13</title><polygon fill="url(#g-decision7g5gojy7oyg4xyvqpycik9)" stroke="#d1461b" points="297.037,-1156 163.638,-1138 297.037,-1120 430.435,-1138 297.037,-1156"/><text text-anchor="start" x="225.037" y="-1135.5" font-family="Open Sans, Noto Sans SC, Noto Sans TC, Noto Sans JP, Noto Sans KR" font-size="10.00" fill="white">Do you have an email address?</text></g><!-- ifs_block_12&#45;&gt;ifs_block_13 --><g id="edge12" class="edge"><title>ifs_block_12-&gt;ifs_block_13</title><path fill="none" stroke="#000000" d="M461.17,-1200.88C427.502,-1187.98 377.648,-1168.88 341.725,-1155.12"/><polygon fill="#000000" stroke="#000000" points="342.578,-1151.7 331.987,-1151.39 340.073,-1158.23 342.578,-1151.7"/><text text-anchor="start" x="410.037" y="-1175" font-family="Open Sans, Noto Sans SC, Noto Sans TC, Noto Sans JP, Noto Sans KR" font-weight="bold" font-size="10.00" fill="#000000"> Yes </text><polyline fill="none" stroke="#000000" points="432.037,-1171 382.486,-1171 "/></g><!-- ifs_block_41 --><g id="node33" class="node"><title>ifs_block_41</title><polygon fill="url(#g-decision7g5gojy7oyg4xyvqpycik9)" stroke="#d1461b" points="566.037,-1079 509.317,-1061 566.037,-1043 622.756,-1061 566.037,-1079"/><text text-anchor="start" x="540.037" y="-1058.5" font-family="Open Sans, Noto Sans SC, Noto Sans TC, Noto Sans JP, Noto Sans KR" font-size="10.00" fill="white">Have docs?</text></g><!-- ifs_block_12&#45;&gt;ifs_block_41 --><g id="edge38" class="edge"><title>ifs_block_12-&gt;ifs_block_41</title><path fill="none" stroke="#000000" d="M505.705,-1197.63C517.678,-1170.52 540.874,-1117.99 554.756,-1086.55"/><polygon fill="#000000" stroke="#000000" points="558.072,-1087.7 558.91,-1077.14 551.668,-1084.88 558.072,-1087.7"/><text text-anchor="start" x="540.037" y="-1136.5" font-family="Open Sans, Noto Sans SC, Noto Sans TC, Noto Sans JP, Noto Sans KR" font-weight="bold" font-size="10.00" fill="#000000"> No </text><polyline fill="none" stroke="#000000" points="559.037,-1132.5 534.603,-1132.5 "/></g><!-- ifs_block_14 --><g id="node14" class="node"><title>ifs_block_14</title><polygon fill="url(#g-decision7g5gojy7oyg4xyvqpycik9)" stroke="#d1461b" points="129.037,-1079 -0.0367544,-1061 129.037,-1043 258.11,-1061 129.037,-1079"/><text text-anchor="start" x="59.5367" y="-1058.5" font-family="Open Sans, Noto Sans SC, Noto Sans TC, Noto Sans JP, Noto Sans KR" font-size="10.00" fill="white">Do you have a photo/camera?</text></g><!-- ifs_block_13&#45;&gt;ifs_block_14 --><g id="edge13" class="edge"><title>ifs_block_13-&gt;ifs_block_14</title><path fill="none" stroke="#000000" d="M266.613,-1124.06C239.139,-1111.46 198.542,-1092.86 168.564,-1079.12"/><polygon fill="#000000" stroke="#000000" points="169.783,-1075.83 159.234,-1074.84 166.866,-1082.19 169.783,-1075.83"/><text text-anchor="start" x="224.037" y="-1098" font-family="Open Sans, Noto Sans SC, Noto Sans TC, Noto Sans JP, Noto Sans KR" font-weight="bold" font-size="10.00" fill="#000000"> Yes </text><polyline fill="none" stroke="#000000" points="246.037,-1094 199.055,-1094 "/></g><!-- terminator_block_39 --><g id="node32" class="node"><title>terminator_block_39</title><ellipse fill="url(#g-terminator7g5gojy7oyg4xyvqpycik9)" stroke="#C32F06" cx="394.037" cy="-984" rx="50.7503" ry="18"/><text text-anchor="start" x="359.037" y="-981.5" font-family="Open Sans, Noto Sans SC, Noto Sans TC, Noto Sans JP, Noto Sans KR" font-size="10.00" fill="white">Offline channel</text></g><!-- ifs_block_13&#45;&gt;terminator_block_39 --><g id="edge37" class="edge"><title>ifs_block_13-&gt;terminator_block_39</title><path fill="none" stroke="#000000" d="M307.602,-1121.23C324.406,-1094.55 357.361,-1042.23 377.37,-1010.46"/><polygon fill="#000000" stroke="#000000" points="380.521,-1012.03 382.889,-1001.7 374.598,-1008.29 380.521,-1012.03"/><text text-anchor="start" x="357.037" y="-1059.5" font-family="Open Sans, Noto Sans SC, Noto Sans TC, Noto Sans JP, Noto Sans KR" font-weight="bold" font-size="10.00" fill="#000000"> No </text><polyline fill="none" stroke="#000000" points="376.037,-1055.5 348.525,-1055.5 "/></g><!-- process_block_15 --><g id="node15" class="node"><title>process_block_15</title><polygon fill="url(#g-process7g5gojy7oyg4xyvqpycik9)" stroke="#3f51b5" points="230.037,-1002 176.037,-1002 176.037,-966 230.037,-966 230.037,-1002"/><text text-anchor="start" x="190.037" y="-981.5" font-family="Open Sans, Noto Sans SC, Noto Sans TC, Noto Sans JP, Noto Sans KR" font-size="10.00" fill="white">Verify</text></g><!-- ifs_block_14&#45;&gt;process_block_15 --><g id="edge14" class="edge"><title>ifs_block_14-&gt;process_block_15</title><path fill="none" stroke="#000000" d="M144.37,-1045.05C154.232,-1034.78 167.266,-1021.22 178.543,-1009.49"/><polygon fill="#000000" stroke="#000000" points="181.243,-1011.73 185.649,-1002.09 176.196,-1006.88 181.243,-1011.73"/><text text-anchor="start" x="171.037" y="-1021" font-family="Open Sans, Noto Sans SC, Noto Sans TC, Noto Sans JP, Noto Sans KR" font-weight="bold" font-size="10.00" fill="#000000"> Yes </text><polyline fill="none" stroke="#000000" points="193.037,-1017 172.047,-1017 "/></g><!-- ifs_block_14&#45;&gt;terminator_block_39 --><g id="edge36" class="edge"><title>ifs_block_14-&gt;terminator_block_39</title><path fill="none" stroke="#000000" d="M171.027,-1048.8C218.367,-1035.04 295.234,-1012.71 345.214,-998.186"/><polygon fill="#000000" stroke="#000000" points="346.209,-1001.54 354.835,-995.391 344.255,-994.82 346.209,-1001.54"/><text text-anchor="start" x="278.037" y="-1021" font-family="Open Sans, Noto Sans SC, Noto Sans TC, Noto Sans JP, Noto Sans KR" font-weight="bold" font-size="10.00" fill="#000000"> No </text><polyline fill="none" stroke="#000000" points="297.037,-1017 280.619,-1017 "/></g><!-- ifs_block_16 --><g id="node16" class="node"><title>ifs_block_16</title><polygon fill="url(#g-decision7g5gojy7oyg4xyvqpycik9)" stroke="#d1461b" points="249.037,-900 119.963,-882 249.037,-864 378.11,-882 249.037,-900"/><text text-anchor="start" x="179.537" y="-879.5" font-family="Open Sans, Noto Sans SC, Noto Sans TC, Noto Sans JP, Noto Sans KR" font-size="10.00" fill="white">Do you have a Verify account?</text></g><!-- process_block_15&#45;&gt;ifs_block_16 --><g id="edge15" class="edge"><title>process_block_15-&gt;ifs_block_16</title><path fill="none" stroke="#000000" d="M211.261,-965.764C218.456,-949.809 228.997,-926.435 237.118,-908.429"/><polygon fill="#000000" stroke="#000000" points="240.422,-909.615 241.343,-899.06 234.041,-906.737 240.422,-909.615"/></g><!-- process_block_17 --><g id="node17" class="node"><title>process_block_17</title><polygon fill="url(#g-process7g5gojy7oyg4xyvqpycik9)" stroke="#3f51b5" points="463.037,-823 367.037,-823 367.037,-787 463.037,-787 463.037,-823"/><text text-anchor="start" x="374.037" y="-802.5" font-family="Open Sans, Noto Sans SC, Noto Sans TC, Noto Sans JP, Noto Sans KR" font-size="10.00" fill="white">Sign in with Verify</text></g><!-- ifs_block_16&#45;&gt;process_block_17 --><g id="edge16" class="edge"><title>ifs_block_16-&gt;process_block_17</title><path fill="none" stroke="#000000" d="M279.098,-868.056C303.525,-856.725 338.451,-840.525 366.785,-827.382"/><polygon fill="#000000" stroke="#000000" points="368.517,-830.436 376.116,-823.053 365.572,-824.086 368.517,-830.436"/><text text-anchor="start" x="342.037" y="-842" font-family="Open Sans, Noto Sans SC, Noto Sans TC, Noto Sans JP, Noto Sans KR" font-weight="bold" font-size="10.00" fill="#000000"> Yes </text><polyline fill="none" stroke="#000000" points="364.037,-838 344.566,-838 "/></g><!-- process_block_38 --><g id="node31" class="node"><title>process_block_38</title><polygon fill="url(#g-process7g5gojy7oyg4xyvqpycik9)" stroke="#3f51b5" points="299.037,-823 199.037,-823 199.037,-787 299.037,-787 299.037,-823"/><text text-anchor="start" x="206.037" y="-802.5" font-family="Open Sans, Noto Sans SC, Noto Sans TC, Noto Sans JP, Noto Sans KR" font-size="10.00" fill="white">Sign up with Verify</text></g><!-- ifs_block_16&#45;&gt;process_block_38 --><g id="edge34" class="edge"><title>ifs_block_16-&gt;process_block_38</title><path fill="none" stroke="#000000" d="M249.037,-863.752C249.037,-854.642 249.037,-843.417 249.037,-833.228"/><polygon fill="#000000" stroke="#000000" points="252.537,-833.117 249.037,-823.117 245.537,-833.117 252.537,-833.117"/><text text-anchor="start" x="249.037" y="-842" font-family="Open Sans, Noto Sans SC, Noto Sans TC, Noto Sans JP, Noto Sans KR" font-weight="bold" font-size="10.00" fill="#000000"> No </text><polyline fill="none" stroke="#000000" points="268.037,-838 249.037,-838 "/></g><!-- process_block_18 --><g id="node18" class="node"><title>process_block_18</title><polygon fill="url(#g-process7g5gojy7oyg4xyvqpycik9)" stroke="#3f51b5" points="454.537,-756 375.537,-756 375.537,-720 454.537,-720 454.537,-756"/><text text-anchor="start" x="382.537" y="-735.5" font-family="Open Sans, Noto Sans SC, Noto Sans TC, Noto Sans JP, Noto Sans KR" font-size="10.00" fill="white">You're eligible</text></g><!-- process_block_17&#45;&gt;process_block_18 --><g id="edge17" class="edge"><title>process_block_17-&gt;process_block_18</title><path fill="none" stroke="#000000" d="M415.037,-786.692C415.037,-780.488 415.037,-773.402 415.037,-766.592"/><polygon fill="#000000" stroke="#000000" points="418.537,-766.286 415.037,-756.286 411.537,-766.286 418.537,-766.286"/></g><!-- ifs_block_19 --><g id="node19" class="node"><title>ifs_block_19</title><polygon fill="url(#g-decision7g5gojy7oyg4xyvqpycik9)" stroke="#d1461b" points="415.037,-689 210.449,-671 415.037,-653 619.625,-671 415.037,-689"/><text text-anchor="start" x="300.037" y="-668.5" font-family="Open Sans, Noto Sans SC, Noto Sans TC, Noto Sans JP, Noto Sans KR" font-size="10.00" fill="white">User agent detect: Is the user on a mobile device?</text></g><!-- process_block_18&#45;&gt;ifs_block_19 --><g id="edge18" class="edge"><title>process_block_18-&gt;ifs_block_19</title><path fill="none" stroke="#000000" d="M415.037,-719.692C415.037,-713.488 415.037,-706.402 415.037,-699.592"/><polygon fill="#000000" stroke="#000000" points="418.537,-699.286 415.037,-689.286 411.537,-699.286 418.537,-699.286"/></g><!-- process_block_20 --><g id="node20" class="node"><title>process_block_20</title><polygon fill="url(#g-process7g5gojy7oyg4xyvqpycik9)" stroke="#3f51b5" points="436.537,-314 283.537,-314 283.537,-278 436.537,-278 436.537,-314"/><text text-anchor="start" x="290.537" y="-293.5" font-family="Open Sans, Noto Sans SC, Noto Sans TC, Noto Sans JP, Noto Sans KR" font-size="10.00" fill="white">Take a photo with your device</text></g><!-- ifs_block_19&#45;&gt;process_block_20 --><g id="edge19" class="edge"><title>ifs_block_19-&gt;process_block_20</title><path fill="none" stroke="#000000" d="M394.622,-654.64C379.33,-640.422 361.037,-618.328 361.037,-594 361.037,-594 361.037,-594 361.037,-373 361.037,-356.913 360.816,-338.937 360.582,-324.402"/><polygon fill="#000000" stroke="#000000" points="364.075,-323.985 360.403,-314.046 357.076,-324.105 364.075,-323.985"/><text text-anchor="start" x="361.037" y="-487" font-family="Open Sans, Noto Sans SC, Noto Sans TC, Noto Sans JP, Noto Sans KR" font-weight="bold" font-size="10.00" fill="#000000"> Yes </text><polyline fill="none" stroke="#000000" points="383.037,-483 361.037,-483 "/></g><!-- process_block_21 --><g id="node21" class="node"><title>process_block_21</title><polygon fill="url(#g-process7g5gojy7oyg4xyvqpycik9)" stroke="#3f51b5" points="621.037,-612 525.037,-612 525.037,-576 621.037,-576 621.037,-612"/><text text-anchor="start" x="532.037" y="-591.5" font-family="Open Sans, Noto Sans SC, Noto Sans TC, Noto Sans JP, Noto Sans KR" font-size="10.00" fill="white">You need a photo</text></g><!-- ifs_block_19&#45;&gt;process_block_21 --><g id="edge21" class="edge"><title>ifs_block_19-&gt;process_block_21</title><path fill="none" stroke="#000000" d="M446.631,-655.603C469.569,-644.424 500.97,-629.121 526.736,-616.564"/><polygon fill="#000000" stroke="#000000" points="528.492,-619.602 535.948,-612.075 525.425,-613.31 528.492,-619.602"/><text text-anchor="start" x="504.037" y="-631" font-family="Open Sans, Noto Sans SC, Noto Sans TC, Noto Sans JP, Noto Sans KR" font-weight="bold" font-size="10.00" fill="#000000"> No </text><polyline fill="none" stroke="#000000" points="523.037,-627 506.575,-627 "/></g><!-- process_block_35 --><g id="node29" class="node"><title>process_block_35</title><polygon fill="url(#g-process7g5gojy7oyg4xyvqpycik9)" stroke="#3f51b5" points="418.037,-103 336.037,-103 336.037,-67 418.037,-67 418.037,-103"/><text text-anchor="start" x="343.037" y="-82.5" font-family="Open Sans, Noto Sans SC, Noto Sans TC, Noto Sans JP, Noto Sans KR" font-size="10.00" fill="white">Confirm photo</text></g><!-- process_block_20&#45;&gt;process_block_35 --><g id="edge20" class="edge"><title>process_block_20-&gt;process_block_35</title><path fill="none" stroke="#000000" d="M361.516,-277.644C364.493,-240.686 371.228,-157.094 374.767,-113.17"/><polygon fill="#000000" stroke="#000000" points="378.259,-113.412 375.573,-103.163 371.281,-112.85 378.259,-113.412"/></g><!-- ifs_block_22 --><g id="node22" class="node"><title>ifs_block_22</title><polygon fill="url(#g-decision7g5gojy7oyg4xyvqpycik9)" stroke="#d1461b" points="609.037,-545 486.783,-527 609.037,-509 731.29,-527 609.037,-545"/><text text-anchor="start" x="543.537" y="-524.5" font-family="Open Sans, Noto Sans SC, Noto Sans TC, Noto Sans JP, Noto Sans KR" font-size="10.00" fill="white">Do you have a digital photo?</text></g><!-- process_block_21&#45;&gt;ifs_block_22 --><g id="edge22" class="edge"><title>process_block_21-&gt;ifs_block_22</title><path fill="none" stroke="#000000" d="M582.874,-575.692C586.663,-568.64 591.064,-560.449 595.163,-552.82"/><polygon fill="#000000" stroke="#000000" points="598.302,-554.372 599.952,-543.907 592.136,-551.059 598.302,-554.372"/></g><!-- ifs_block_23 --><g id="node23" class="node"><title>ifs_block_23</title><polygon fill="url(#g-decision7g5gojy7oyg4xyvqpycik9)" stroke="#d1461b" points="833.037,-468 696.478,-450 833.037,-432 969.595,-450 833.037,-468"/><text text-anchor="start" x="759.037" y="-447.5" font-family="Open Sans, Noto Sans SC, Noto Sans TC, Noto Sans JP, Noto Sans KR" font-size="10.00" fill="white">Is your photo on this computer?</text></g><!-- ifs_block_22&#45;&gt;ifs_block_23 --><g id="edge23" class="edge"><title>ifs_block_22-&gt;ifs_block_23</title><path fill="none" stroke="#000000" d="M646.026,-514.285C684.104,-501.196 743.591,-480.747 785.22,-466.437"/><polygon fill="#000000" stroke="#000000" points="786.549,-469.681 794.868,-463.121 784.273,-463.062 786.549,-469.681"/><text text-anchor="start" x="734.037" y="-487" font-family="Open Sans, Noto Sans SC, Noto Sans TC, Noto Sans JP, Noto Sans KR" font-weight="bold" font-size="10.00" fill="#000000"> Yes </text><polyline fill="none" stroke="#000000" points="756.037,-483 737.554,-483 "/></g><!-- ifs_block_30 --><g id="node27" class="node"><title>ifs_block_30</title><polygon fill="url(#g-decision7g5gojy7oyg4xyvqpycik9)" stroke="#d1461b" points="624.037,-391 465.688,-373 624.037,-355 782.385,-373 624.037,-391"/><text text-anchor="start" x="537.037" y="-370.5" font-family="Open Sans, Noto Sans SC, Noto Sans TC, Noto Sans JP, Noto Sans KR" font-size="10.00" fill="white">Do you have a camera on this device?</text></g><!-- ifs_block_22&#45;&gt;ifs_block_30 --><g id="edge29" class="edge"><title>ifs_block_22-&gt;ifs_block_30</title><path fill="none" stroke="#000000" d="M610.787,-509.033C613.372,-482.488 618.236,-432.552 621.297,-401.127"/><polygon fill="#000000" stroke="#000000" points="624.812,-401.145 622.298,-390.853 617.845,-400.466 624.812,-401.145"/><text text-anchor="start" x="618.037" y="-448.5" font-family="Open Sans, Noto Sans SC, Noto Sans TC, Noto Sans JP, Noto Sans KR" font-weight="bold" font-size="10.00" fill="#000000"> No </text><polyline fill="none" stroke="#000000" points="637.037,-444.5 617.128,-444.5 "/></g><!-- process_block_24 --><g id="node24" class="node"><title>process_block_24</title><polygon fill="url(#g-process7g5gojy7oyg4xyvqpycik9)" stroke="#3f51b5" points="530.037,-170 476.037,-170 476.037,-134 530.037,-134 530.037,-170"/><text text-anchor="start" x="486.537" y="-149.5" font-family="Open Sans, Noto Sans SC, Noto Sans TC, Noto Sans JP, Noto Sans KR" font-size="10.00" fill="white">Upload</text></g><!-- ifs_block_23&#45;&gt;process_block_24 --><g id="edge24" class="edge"><title>ifs_block_23-&gt;process_block_24</title><path fill="none" stroke="#000000" d="M880.393,-438.084C911.714,-427.037 947.037,-407.034 947.037,-373 947.037,-373 947.037,-373 947.037,-219 947.037,-177.977 646.866,-159.119 540.142,-153.71"/><polygon fill="#000000" stroke="#000000" points="540.304,-150.214 530.143,-153.214 539.957,-157.205 540.304,-150.214"/><text text-anchor="start" x="947.037" y="-294.5" font-family="Open Sans, Noto Sans SC, Noto Sans TC, Noto Sans JP, Noto Sans KR" font-weight="bold" font-size="10.00" fill="#000000"> Yes </text><polyline fill="none" stroke="#000000" points="969.037,-290.5 947.037,-290.5 "/></g><!-- ifs_block_23&#45;&gt;ifs_block_30 --><g id="edge26" class="edge"><title>ifs_block_23-&gt;ifs_block_30</title><path fill="none" stroke="#000000" d="M796.632,-436.588C761.847,-423.772 709.234,-404.388 671.243,-390.392"/><polygon fill="#000000" stroke="#000000" points="672.025,-386.95 661.432,-386.777 669.605,-393.518 672.025,-386.95"/><text text-anchor="start" x="741.037" y="-410" font-family="Open Sans, Noto Sans SC, Noto Sans TC, Noto Sans JP, Noto Sans KR" font-weight="bold" font-size="10.00" fill="#000000"> No </text><polyline fill="none" stroke="#000000" points="760.037,-406 714.287,-406 "/></g><!-- process_block_24&#45;&gt;process_block_35 --><g id="edge25" class="edge"><title>process_block_24-&gt;process_block_35</title><path fill="none" stroke="#000000" d="M476.007,-137.627C459.725,-128.969 438.624,-117.749 420.091,-107.894"/><polygon fill="#000000" stroke="#000000" points="421.704,-104.788 411.232,-103.183 418.418,-110.968 421.704,-104.788"/></g><!-- ifs_block_26 --><g id="node25" class="node"><title>ifs_block_26</title><polygon fill="url(#g-decision7g5gojy7oyg4xyvqpycik9)" stroke="#d1461b" points="633.037,-314 504.628,-296 633.037,-278 761.446,-296 633.037,-314"/><text text-anchor="start" x="564.037" y="-293.5" font-family="Open Sans, Noto Sans SC, Noto Sans TC, Noto Sans JP, Noto Sans KR" font-size="10.00" fill="white">Do you have a digital camera?</text></g><!-- terminator_block_29 --><g id="node26" class="node"><title>terminator_block_29</title><ellipse fill="url(#g-terminator7g5gojy7oyg4xyvqpycik9)" stroke="#C32F06" cx="752.037" cy="-219" rx="92.3402" ry="18"/><text text-anchor="start" x="681.537" y="-216.5" font-family="Open Sans, Noto Sans SC, Noto Sans TC, Noto Sans JP, Noto Sans KR" font-size="10.00" fill="white">You need a photo from a shop</text></g><!-- ifs_block_26&#45;&gt;terminator_block_29 --><g id="edge28" class="edge"><title>ifs_block_26-&gt;terminator_block_29</title><path fill="none" stroke="#000000" d="M655.981,-281.154C673.16,-270.038 696.978,-254.627 716.597,-241.931"/><polygon fill="#000000" stroke="#000000" points="718.502,-244.868 724.997,-236.497 714.699,-238.991 718.502,-244.868"/><text text-anchor="start" x="699.037" y="-256" font-family="Open Sans, Noto Sans SC, Noto Sans TC, Noto Sans JP, Noto Sans KR" font-weight="bold" font-size="10.00" fill="#000000"> No </text><polyline fill="none" stroke="#000000" points="718.037,-252 701.265,-252 "/></g><!-- process_block_33 --><g id="node28" class="node"><title>process_block_33</title><polygon fill="url(#g-process7g5gojy7oyg4xyvqpycik9)" stroke="#3f51b5" points="591.537,-237 414.537,-237 414.537,-201 591.537,-201 591.537,-237"/><text text-anchor="start" x="421.537" y="-216.5" font-family="Open Sans, Noto Sans SC, Noto Sans TC, Noto Sans JP, Noto Sans KR" font-size="10.00" fill="white">Take photo with camera (guidance)</text></g><!-- ifs_block_26&#45;&gt;process_block_33 --><g id="edge27" class="edge"><title>ifs_block_26-&gt;process_block_33</title><path fill="none" stroke="#000000" d="M608.279,-281.336C589.714,-270.34 563.929,-255.067 542.529,-242.392"/><polygon fill="#000000" stroke="#000000" points="544.047,-239.223 533.66,-237.138 540.48,-245.246 544.047,-239.223"/><text text-anchor="start" x="575.037" y="-256" font-family="Open Sans, Noto Sans SC, Noto Sans TC, Noto Sans JP, Noto Sans KR" font-weight="bold" font-size="10.00" fill="#000000"> Yes </text><polyline fill="none" stroke="#000000" points="597.037,-252 559.22,-252 "/></g><!-- ifs_block_30&#45;&gt;process_block_20 --><g id="edge30" class="edge"><title>ifs_block_30-&gt;process_block_20</title><path fill="none" stroke="#000000" d="M579.551,-360.025C539.217,-348.261 479.042,-330.71 431.891,-316.957"/><polygon fill="#000000" stroke="#000000" points="432.619,-313.524 422.039,-314.084 430.659,-320.244 432.619,-313.524"/><text text-anchor="start" x="508.037" y="-333" font-family="Open Sans, Noto Sans SC, Noto Sans TC, Noto Sans JP, Noto Sans KR" font-weight="bold" font-size="10.00" fill="#000000"> Yes </text><polyline fill="none" stroke="#000000" points="530.037,-329 474.034,-329 "/></g><!-- ifs_block_30&#45;&gt;ifs_block_26 --><g id="edge31" class="edge"><title>ifs_block_30-&gt;ifs_block_26</title><path fill="none" stroke="#000000" d="M626.124,-355.141C627.215,-345.811 628.573,-334.186 629.797,-323.717"/><polygon fill="#000000" stroke="#000000" points="633.276,-324.101 630.961,-313.762 626.323,-323.288 633.276,-324.101"/><text text-anchor="start" x="629.037" y="-333" font-family="Open Sans, Noto Sans SC, Noto Sans TC, Noto Sans JP, Noto Sans KR" font-weight="bold" font-size="10.00" fill="#000000"> No </text><polyline fill="none" stroke="#000000" points="648.037,-329 629.097,-329 "/></g><!-- process_block_33&#45;&gt;process_block_24 --><g id="edge32" class="edge"><title>process_block_33-&gt;process_block_24</title><path fill="none" stroke="#000000" d="M503.037,-200.692C503.037,-194.488 503.037,-187.402 503.037,-180.592"/><polygon fill="#000000" stroke="#000000" points="506.537,-180.286 503.037,-170.286 499.537,-180.286 506.537,-180.286"/></g><!-- terminator_block_36 --><g id="node30" class="node"><title>terminator_block_36</title><ellipse fill="url(#g-terminator7g5gojy7oyg4xyvqpycik9)" stroke="#C32F06" cx="377.037" cy="-18" rx="27" ry="18"/><text text-anchor="start" x="364.537" y="-15.5" font-family="Open Sans, Noto Sans SC, Noto Sans TC, Noto Sans JP, Noto Sans KR" font-size="10.00" fill="white">Done</text></g><!-- process_block_35&#45;&gt;terminator_block_36 --><g id="edge33" class="edge"><title>process_block_35-&gt;terminator_block_36</title><path fill="none" stroke="#000000" d="M377.037,-66.692C377.037,-60.4879 377.037,-53.4019 377.037,-46.5924"/><polygon fill="#000000" stroke="#000000" points="380.537,-46.2859 377.037,-36.2859 373.537,-46.2859 380.537,-46.2859"/></g><!-- process_block_38&#45;&gt;process_block_18 --><g id="edge35" class="edge"><title>process_block_38-&gt;process_block_18</title><path fill="none" stroke="#000000" d="M293.959,-786.869C316.223,-777.883 343.154,-767.013 365.959,-757.808"/><polygon fill="#000000" stroke="#000000" points="367.491,-760.964 375.454,-753.976 364.871,-754.473 367.491,-760.964"/></g><!-- ifs_block_41&#45;&gt;terminator_block_39 --><g id="edge41" class="edge"><title>ifs_block_41-&gt;terminator_block_39</title><path fill="none" stroke="#000000" d="M542.482,-1050.45C514.931,-1038.12 468.832,-1017.48 435.303,-1002.47"/><polygon fill="#000000" stroke="#000000" points="436.329,-999.098 425.771,-998.207 433.468,-1005.49 436.329,-999.098"/><text text-anchor="start" x="491.037" y="-1021" font-family="Open Sans, Noto Sans SC, Noto Sans TC, Noto Sans JP, Noto Sans KR" font-weight="bold" font-size="10.00" fill="#000000"> No </text><polyline fill="none" stroke="#000000" points="510.037,-1017 469.469,-1017 "/></g><!-- process_block_42 --><g id="node34" class="node"><title>process_block_42</title><polygon fill="url(#g-process7g5gojy7oyg4xyvqpycik9)" stroke="#3f51b5" points="646.537,-951 531.537,-951 531.537,-915 646.537,-915 646.537,-951"/><text text-anchor="start" x="538.537" y="-930.5" font-family="Open Sans, Noto Sans SC, Noto Sans TC, Noto Sans JP, Noto Sans KR" font-size="10.00" fill="white">Scan and upload docs</text></g><!-- ifs_block_41&#45;&gt;process_block_42 --><g id="edge39" class="edge"><title>ifs_block_41-&gt;process_block_42</title><path fill="none" stroke="#000000" d="M569.139,-1043.74C572.937,-1022.6 579.422,-986.508 583.953,-961.292"/><polygon fill="#000000" stroke="#000000" points="587.438,-961.688 585.762,-951.227 580.548,-960.45 587.438,-961.688"/><text text-anchor="start" x="573.037" y="-1021" font-family="Open Sans, Noto Sans SC, Noto Sans TC, Noto Sans JP, Noto Sans KR" font-weight="bold" font-size="10.00" fill="#000000"> Yes </text><polyline fill="none" stroke="#000000" points="595.037,-1017 573.819,-1017 "/></g><!-- process_block_42&#45;&gt;process_block_18 --><g id="edge40" class="edge"><title>process_block_42-&gt;process_block_18</title><path fill="none" stroke="#000000" d="M581.105,-914.955C567.405,-885.365 536.904,-825.935 497.037,-787 486.917,-777.116 474.437,-768.379 462.294,-761.122"/><polygon fill="#000000" stroke="#000000" points="463.965,-758.046 453.549,-756.104 460.481,-764.117 463.965,-758.046"/></g></g></svg>
