<?xml version="1.0" encoding="utf-8"?>
<!-- Generator: Adobe Illustrator 16.0.4, SVG Export Plug-In . SVG Version: 6.00 Build 0)  -->
<!DOCTYPE svg PUBLIC "-//W3C//DTD SVG 1.1//EN" "http://www.w3.org/Graphics/SVG/1.1/DTD/svg11.dtd">
<svg version="1.1" id="Layer_1" xmlns="http://www.w3.org/2000/svg" xmlns:xlink="http://www.w3.org/1999/xlink" x="0px" y="0px"
	 width="629.992px" height="240.67px" viewBox="0 0 629.992 240.67" enable-background="new 0 0 629.992 240.67"
	 xml:space="preserve">
<linearGradient id="SVGID_1_" gradientUnits="userSpaceOnUse" x1="144.5376" y1="120.334" x2="634.5837" y2="120.334">
	<stop  offset="0" style="stop-color:#C0EBFF"/>
	<stop  offset="0.665" style="stop-color:#FFFFFF"/>
</linearGradient>
<polygon fill="url(#SVGID_1_)" points="497.47,240.668 134.822,116.778 497.47,0 "/>
<rect x="612.739" fill="#87888A" width="17.248" height="240.668"/>
<g>
	<path fill="#005DA6" d="M437.455,125.53c0.015,0.758,0.609,1.375,1.364,1.427c0.051,0.005,0.089,0,0.148,0
		c0.238-0.005,5.375-0.124,5.375-0.124s1.334,9.108,1.667,11.059c0.669,3.915,2.294,6.045,10.957,5.844
		c7.408-0.174,19.268-3.379,25.171-9.551c5.083-5.312,10.541-12.988,10.232-26.217c-0.322-13.906-11.856-24.918-25.765-24.594
		c-11.963,0.278-21.782,8.86-24.081,20.11c-0.157,0.77-0.847,3.331-0.998,3.992c-2.164,9.554-3.462,15.278-3.967,17.517
		C437.515,125.149,437.45,125.321,437.455,125.53 M449.384,111.026c-1.019-1.345-0.756-3.26,0.586-4.281
		c1.343-1.017,3.258-0.756,4.278,0.587s0.757,3.258-0.586,4.276C452.317,112.629,450.403,112.368,449.384,111.026"/>
	<path fill="#005DA6" d="M508.853,240.668h-4.224H494.6h-50.344v-20.637V203.26c0-0.269,0-4.321,0-7.563c0,0,0-38.065,21.297-45.954
		c2.885-1.069,6.146-1.366,9.599-1.366c11.385,0,18.462,5.018,23.67,14.914c1.844,3.507,3.124,7.369,4.005,11.249l0.003,0.002
		c0,0,2.758,10.468,5.599,31.514c0.785,5.817,1.558,12.118,2.917,23.782C512.102,236.312,508.853,240.668,508.853,240.668z
		 M485.848,240.668l1.92-5.953c0.168-0.522,0.173-1.083,0.015-1.608l-12.597-41.62c-0.431-1.423-1.937-2.229-3.36-1.798
		c-1.425,0.432-2.23,1.936-1.798,3.358l12.352,40.812l-2.196,6.809"/>
</g>
<rect x="195.665" y="128.507" fill="none" width="184.861" height="100.304"/>
<text transform="matrix(1 0 0 1 251.9863 139.8281)"><tspan x="0" y="0" fill="#005DA6" font-family="'GDSTransportWebsite'" font-size="16.1693">1.5 metres </tspan><tspan x="15.68" y="17.248" fill="#005DA6" font-family="'GDSTransportWebsite'" font-size="16.1693">5 feet</tspan></text>
<g>
	<g>
		
			<line fill="none" stroke="#005DA6" stroke-width="2.1559" stroke-miterlimit="10" x1="158.323" y1="116.979" x2="160.479" y2="116.979"/>
		
			<line fill="none" stroke="#005DA6" stroke-width="2.1559" stroke-miterlimit="10" stroke-dasharray="4.326,4.326" x1="164.805" y1="116.979" x2="413.548" y2="116.979"/>
		
			<line fill="none" stroke="#005DA6" stroke-width="2.1559" stroke-miterlimit="10" x1="415.711" y1="116.979" x2="417.867" y2="116.979"/>
		<g>
			<polygon fill="#005DA6" points="159.896,122.354 150.588,116.98 159.896,111.604 			"/>
		</g>
		<g>
			<polygon fill="#005DA6" points="416.294,122.354 425.602,116.98 416.294,111.604 			"/>
		</g>
	</g>
</g>
<rect x="511.197" y="127.41" fill="none" width="85.693" height="101.4"/>
<text transform="matrix(1 0 0 1 515.8428 138.7314)"><tspan x="0" y="0" fill="#005DA6" font-family="'GDSTransportWebsite'" font-size="16.1693">0.5 metres</tspan><tspan x="12.652" y="17.248" fill="#005DA6" font-family="'GDSTransportWebsite'" font-size="16.1693">1.5 feet</tspan></text>
<g>
	<g>
		
			<line fill="none" stroke="#005DA6" stroke-width="2.1559" stroke-miterlimit="10" x1="515.98" y1="116.979" x2="518.136" y2="116.979"/>
		
			<line fill="none" stroke="#005DA6" stroke-width="2.1559" stroke-miterlimit="10" stroke-dasharray="4.2244,4.2244" x1="522.36" y1="116.979" x2="587.838" y2="116.979"/>
		
			<line fill="none" stroke="#005DA6" stroke-width="2.1559" stroke-miterlimit="10" x1="589.95" y1="116.979" x2="592.106" y2="116.979"/>
		<g>
			<polygon fill="#005DA6" points="517.553,122.354 508.245,116.98 517.553,111.604 			"/>
		</g>
		<g>
			<polygon fill="#005DA6" points="590.533,122.354 599.841,116.98 590.533,111.604 			"/>
		</g>
	</g>
</g>
<g>
	<g>
		<path fill="#87888A" d="M102.397,145.136c-5.659,9.701-17.236,19.946-24.062,26.622c-18.776-10.928-29.88-17.866-29.88-17.866
			s-9.024-0.422-11.768-0.897c-11.426-1.974-10.046-1.277-16.54,2.329c-10.519,5.841,7.041,17.642,7.575,18.619
			c4.607,8.43,33.205,26.11,37.441,31.513c2.702,3.449,18.757,10.498,24.944-2.085c12.654-25.729,16.036-42.43,27.274-56.205
			c10.313-12.64,5.966-24.025-0.297-21.029C110.886,129.1,106.304,135.567,102.397,145.136z"/>
	</g>
	<path fill="#0B0B0B" d="M70.765,125.624c0.004-0.211-0.061-0.382-0.104-0.538c-0.506-2.239-1.804-7.962-3.969-17.517
		c-0.149-0.663-0.84-3.223-0.998-3.991c-2.298-11.25-12.117-19.833-24.08-20.112c-13.908-0.323-25.443,10.689-25.766,24.596
		c-0.309,13.229,5.15,20.905,10.232,26.216c5.904,6.173,17.764,9.377,25.171,9.55c8.663,0.202,10.287-1.928,10.957-5.842
		c0.333-1.951,1.667-11.061,1.667-11.061s5.14,0.121,5.376,0.126c0.059,0,0.098,0.004,0.149,0
		C70.155,126.999,70.75,126.381,70.765,125.624 M58.835,111.117c-1.019,1.344-2.934,1.604-4.279,0.584
		c-1.343-1.019-1.606-2.933-0.585-4.276c1.019-1.344,2.935-1.605,4.278-0.586C59.592,107.857,59.855,109.775,58.835,111.117"/>
	<path fill="#0B0B0B" d="M133.396,109.013h-4.326v-5.434c0-0.563-0.456-1.02-1.019-1.02h-11.223c-0.562,0-1.019,0.456-1.019,1.02
		v26.471c0,0.564,0.456,1.02,1.019,1.02h11.223c0.562,0,1.019-0.455,1.019-1.02v-5.432h4.326c0.562,0,1.019-0.455,1.019-1.019
		v-13.57C134.414,109.467,133.958,109.013,133.396,109.013z"/>
	<g>
		<path fill="none" d="M47.492,198.285l15.944,11.277C56.859,204.699,52.899,202.025,47.492,198.285z"/>
		<path fill="#0B0B0B" d="M114.452,136.134c-9.339,12.223-24.819,35.493-32.421,45.614c-14.927-11.905-17.04-14.006-24.168-19.813
			c-9.441-7.694-12.822-13.097-23.473-13.097c-12.033,0-20.685,5.346-25.719,15.89c-3.559,7.457-5.289,17.408-5.289,30.426
			c0,7.918,1.389,17.158,2.735,26.098c0.583,3.882,2.984,19.417,2.984,19.417h62.714c0,0,0-12.111,0-18.576L29.04,191.836
			c-1.215-0.861-1.505-2.541-0.646-3.757c0.859-1.216,2.541-1.506,3.756-0.647l15.342,10.854c5.407,3.74,9.367,6.414,15.944,11.277
			l1.618,1.146c13.925,9.479,23.545,5.2,30.608-6.312c21.325-34.756,28.25-49.44,33.796-58.79
			C138.622,130.158,122.624,125.439,114.452,136.134z"/>
		<path fill="#FFFFFF" d="M63.44,209.565c0.544,0.403,1.081,0.779,1.614,1.143l-1.618-1.146
			C63.438,209.563,63.438,209.563,63.44,209.565z"/>
	</g>
</g>
</svg>
