<?xml version="1.0" encoding="utf-8"?>
<!-- Generator: Adobe Illustrator 16.0.4, SVG Export Plug-In . SVG Version: 6.00 Build 0)  -->
<!DOCTYPE svg PUBLIC "-//W3C//DTD SVG 1.1//EN" "http://www.w3.org/Graphics/SVG/1.1/DTD/svg11.dtd">
<svg version="1.1" id="Layer_1" xmlns="http://www.w3.org/2000/svg" xmlns:xlink="http://www.w3.org/1999/xlink" x="0px" y="0px"
	 width="629.992px" height="240.67px" viewBox="0 0 629.992 240.67" enable-background="new 0 0 629.992 240.67"
	 xml:space="preserve">
<linearGradient id="SVGID_1_" gradientUnits="userSpaceOnUse" x1="144.5425" y1="120.3359" x2="634.5894" y2="120.3359">
	<stop  offset="0" style="stop-color:#99BFDB;stop-opacity:0.5"/>
	<stop  offset="0.665" style="stop-color:#FFFFFF;stop-opacity:0"/>
</linearGradient>
<polygon fill="url(#SVGID_1_)" points="497.476,240.67 134.827,116.78 497.476,0.002 "/>
<rect x="612.744" y="0.002" fill="#FFFFFF" width="17.248" height="240.668"/>
<g>
	<path fill="#E5EFF6" d="M451.819,112.233c-0.921,0-1.831-0.415-2.431-1.205c-1.019-1.345-0.757-3.26,0.587-4.281
		c0.551-0.418,1.199-0.619,1.843-0.62c0.923,0,1.834,0.416,2.435,1.207c1.021,1.343,0.758,3.258-0.586,4.276
		C453.114,112.03,452.464,112.233,451.819,112.233 M467.209,83.369c-0.2,0-0.397,0.002-0.599,0.007
		c-11.963,0.278-21.782,8.86-24.08,20.11c-0.158,0.77-0.848,3.331-0.998,3.992c-2.164,9.554-3.463,15.278-3.967,17.517
		c-0.046,0.156-0.11,0.328-0.105,0.537c0.016,0.758,0.609,1.375,1.364,1.427h0.148c0.237-0.005,5.376-0.124,5.376-0.124
		s1.334,9.108,1.667,11.059c0.64,3.745,2.155,5.856,9.868,5.856c0.35,0,0.713-0.004,1.088-0.013
		c7.408-0.174,19.268-3.379,25.172-9.551c5.083-5.312,10.541-12.988,10.232-26.217C492.058,94.264,480.849,83.369,467.209,83.369"/>
	<path fill="#E5EFF6" d="M485.853,240.67h-5.664H485.853 M475.157,148.378c-3.453,0-6.715,0.297-9.6,1.366
		c-21.297,7.889-21.297,45.954-21.297,45.954c0,3.242,0,7.295,0,7.563v16.771v20.637h35.928l2.196-6.809l-12.353-40.812
		c-0.432-1.423,0.374-2.927,1.799-3.358c0.26-0.079,0.522-0.116,0.781-0.116c1.156,0,2.227,0.751,2.578,1.914l12.598,41.62
		c0.158,0.525,0.153,1.086-0.016,1.608l-1.92,5.953h8.752h10.029h4.225c0,0,3.248-4.356,2.494-10.831
		c-1.36-11.664-2.133-17.965-2.918-23.782c-2.842-21.046-5.6-31.514-5.6-31.514l-0.003-0.002c-0.882-3.88-2.161-7.742-4.005-11.249
		C493.619,153.396,486.542,148.378,475.157,148.378"/>
</g>
<rect x="195.669" y="128.509" fill="none" width="184.861" height="100.304"/>
<text transform="matrix(1 0 0 1 234.5039 145.3135)"><tspan x="0" y="0" fill="#FFFFFF" font-family="'GDSTransportWebsite'" font-size="24">1.5 metres </tspan><tspan x="23.273" y="28.8" fill="#FFFFFF" font-family="'GDSTransportWebsite'" font-size="24">5 feet</tspan></text>
<g>
	<g>
		
			<line fill="none" stroke="#FFFFFF" stroke-width="2.1559" stroke-miterlimit="10" x1="158.328" y1="116.981" x2="160.484" y2="116.981"/>
		
			<line fill="none" stroke="#FFFFFF" stroke-width="2.1559" stroke-miterlimit="10" stroke-dasharray="4.326,4.326" x1="164.81" y1="116.981" x2="413.553" y2="116.981"/>
		
			<line fill="none" stroke="#FFFFFF" stroke-width="2.1559" stroke-miterlimit="10" x1="415.716" y1="116.981" x2="417.872" y2="116.981"/>
		<g>
			<polygon fill="#FFFFFF" points="159.901,122.356 150.593,116.982 159.901,111.606 			"/>
		</g>
		<g>
			<polygon fill="#FFFFFF" points="416.299,122.356 425.606,116.982 416.299,111.606 			"/>
		</g>
	</g>
</g>
<g>
	<rect x="494.134" y="127.412" fill="none" width="119.858" height="101.4"/>
	<text transform="matrix(1 0 0 1 497.3618 144.2168)"><tspan x="0" y="0" fill="#FFFFFF" font-family="'GDSTransportWebsite'" font-size="24">0.5 metres</tspan><tspan x="18.779" y="28.8" fill="#FFFFFF" font-family="'GDSTransportWebsite'" font-size="24">1.5 feet</tspan></text>
</g>
<g>
	<g>
		
			<line fill="none" stroke="#FFFFFF" stroke-width="2.1559" stroke-miterlimit="10" x1="515.985" y1="116.981" x2="518.141" y2="116.981"/>
		
			<line fill="none" stroke="#FFFFFF" stroke-width="2.1559" stroke-miterlimit="10" stroke-dasharray="4.2244,4.2244" x1="522.364" y1="116.981" x2="587.843" y2="116.981"/>
		
			<line fill="none" stroke="#FFFFFF" stroke-width="2.1559" stroke-miterlimit="10" x1="589.955" y1="116.981" x2="592.11" y2="116.981"/>
		<g>
			<polygon fill="#FFFFFF" points="517.558,122.356 508.249,116.982 517.558,111.606 			"/>
		</g>
		<g>
			<polygon fill="#FFFFFF" points="590.538,122.356 599.847,116.982 590.538,111.606 			"/>
		</g>
	</g>
</g>
<g>
	<g>
		<path fill="#CCDFED" d="M102.402,145.138c-5.659,9.701-17.236,19.946-24.062,26.622c-18.776-10.928-29.88-17.866-29.88-17.866
			s-9.024-0.422-11.768-0.897c-11.426-1.974-10.046-1.277-16.54,2.329c-10.519,5.841,7.041,17.642,7.575,18.619
			c4.607,8.43,33.205,26.11,37.441,31.513c2.702,3.449,18.757,10.498,24.944-2.085c12.654-25.729,16.036-42.43,27.274-56.205
			c10.313-12.64,5.966-24.025-0.297-21.029C110.891,129.102,106.309,135.569,102.402,145.138z"/>
	</g>
	<g>
		<path fill="#99BFDB" d="M56.409,112.325c-0.645,0-1.294-0.203-1.847-0.622c-1.343-1.019-1.606-2.933-0.585-4.276
			c0.6-0.791,1.511-1.207,2.434-1.208c0.644,0,1.292,0.203,1.844,0.622c1.342,1.019,1.606,2.937,0.586,4.278
			C58.241,111.91,57.33,112.325,56.409,112.325 M41.022,83.461c-13.641,0-24.852,10.895-25.169,24.603
			c-0.309,13.229,5.15,20.905,10.232,26.216c5.904,6.173,17.764,9.377,25.171,9.55c0.377,0.009,0.741,0.014,1.092,0.014
			c7.71,0,9.224-2.111,9.865-5.855c0.333-1.951,1.667-11.061,1.667-11.061s5.14,0.121,5.376,0.126h0.149
			c0.755-0.052,1.35-0.67,1.365-1.427c0.004-0.211-0.061-0.382-0.104-0.538c-0.506-2.239-1.804-7.962-3.969-17.517
			c-0.149-0.663-0.84-3.223-0.998-3.991C63.4,92.33,53.582,83.747,41.619,83.468C41.42,83.463,41.219,83.461,41.022,83.461"/>
	</g>
	<path fill="#99BFDB" d="M133.4,109.015h-4.326v-5.434c0-0.563-0.456-1.02-1.019-1.02h-11.223c-0.562,0-1.019,0.456-1.019,1.02
		v26.471c0,0.564,0.456,1.02,1.019,1.02h11.223c0.562,0,1.019-0.455,1.019-1.02v-5.432h4.326c0.562,0,1.019-0.455,1.019-1.019
		v-13.57C134.419,109.469,133.962,109.015,133.4,109.015z"/>
	<g>
		<path fill="#99BFDB" d="M47.497,198.287l15.944,11.277C56.864,204.701,52.904,202.027,47.497,198.287z"/>
		<path fill="#99BFDB" d="M114.457,136.136c-9.339,12.223-24.819,35.493-32.421,45.614c-14.927-11.905-17.04-14.006-24.168-19.813
			c-9.441-7.694-12.822-13.097-23.473-13.097c-12.033,0-20.685,5.346-25.719,15.89c-3.559,7.457-5.289,17.408-5.289,30.426
			c0,7.918,1.389,17.158,2.735,26.098c0.583,3.882,2.984,19.417,2.984,19.417h62.714c0,0,0-12.111,0-18.576l-42.776-30.256
			c-1.215-0.861-1.505-2.541-0.646-3.757c0.859-1.216,2.541-1.506,3.756-0.647l15.342,10.854c5.407,3.74,9.367,6.414,15.944,11.277
			l1.618,1.146c13.925,9.479,23.545,5.2,30.608-6.312c21.325-34.756,28.25-49.44,33.796-58.79
			C138.627,130.16,122.628,125.441,114.457,136.136z"/>
		<path fill="#99BFDB" d="M63.445,209.567c0.544,0.403,1.081,0.779,1.614,1.143l-1.618-1.146
			C63.442,209.565,63.442,209.565,63.445,209.567z"/>
	</g>
</g>
</svg>
