<svg xmlns="http://www.w3.org/2000/svg" xmlns:xlink="http://www.w3.org/1999/xlink" version="1.1" id="Layer_1" x="0px" y="0px" width="629.992px" height="240.67px" viewBox="0 0 629.992 240.67" enable-background="new 0 0 629.992 240.67" xml:space="preserve">
<style>
	.style0{
		stop-color:	#C0EBFF;
	}
	.style1{
		stop-color:	#FFFFFF;
	}
	.style10{
		fill:	#0B0B0B;
	}
	.style11{
		fill:	#FFFFFF;
	}
	.style2{
		fill:	url(#SVGID_1_);
	}
	.style3{
		fill:	#87888A;
	}
	.style4{
		fill:	#005DA6;
	}
	.style5{
		fill:	none;
	}
	.style6{
		font-size:  	16.1693;
		font-family:	'nta', Arial, sans-serif;
		font-weight:	400;
		fill:       	#005DA6;
	}
	.style7{
		stroke:           	#005DA6;
		stroke-width:     	2.1559;
		stroke-miterlimit:	10;
		fill:             	none;
	}
	.style8{
		stroke-miterlimit:	10;
		stroke:           	#005DA6;
		stroke-width:     	2.1559;
		stroke-dasharray: 	4.326;
		fill:             	none;
	}
	.style9{
		stroke-miterlimit:	10;
		stroke:           	#005DA6;
		stroke-width:     	2.1559;
		stroke-dasharray: 	4.2244;
		fill:             	none;
	}
</style><linearGradient id="SVGID_1_" gradientUnits="userSpaceOnUse" x1="144.5" y1="120.3" x2="634.6" y2="120.3">
	<stop offset="0" class="style0"/>
	<stop offset="0.665" class="style1"/>
</linearGradient>
<polygon points="497.5,240.7 134.8,116.8 497.5,0" class="style2"/>
<rect x="612.7" width="17.2" height="240.7" class="style3"/>
<g>
	<path d="M437.455 125.53c0.015 0.8 0.6 1.4 1.4 1.427c0.051 0 0.1 0 0.1 0 c0.238-0.005 5.375-0.124 5.375-0.124s1.334 9.1 1.7 11.059c0.669 3.9 2.3 6 11 5.8 c7.408-0.174 19.268-3.379 25.171-9.551c5.083-5.312 10.541-12.988 10.232-26.217c-0.322-13.906-11.856-24.918-25.765-24.594 c-11.963 0.278-21.782 8.86-24.081 20.11c-0.157 0.77-0.847 3.331-0.998 3.992c-2.164 9.554-3.462 15.278-3.967 17.5 C437.515 125.1 437.4 125.3 437.5 125.5 M449.384 111.026c-1.019-1.345-0.756-3.26 0.586-4.281 c1.343-1.017 3.258-0.756 4.3 0.587s0.757 3.258-0.586 4.276C452.317 112.6 450.4 112.4 449.4 111" class="style4"/>
	<path d="M508.853 240.668h-4.224H494.6h-50.344v-20.637V203.26c0-0.269 0-4.321 0-7.563c0 0 0-38.065 21.297-45.954 c2.885-1.069 6.146-1.366 9.599-1.366c11.385 0 18.5 5 23.7 14.914c1.844 3.5 3.1 7.4 4 11.249l0.003 0 c0 0 2.8 10.5 5.6 31.514c0.785 5.8 1.6 12.1 2.9 23.782C512.102 236.3 508.9 240.7 508.9 240.668z M485.848 240.668l1.92-5.953c0.168-0.522 0.173-1.083 0.015-1.608l-12.597-41.62c-0.431-1.423-1.937-2.229-3.36-1.798 c-1.425 0.432-2.23 1.936-1.798 3.358l12.352 40.812l-2.196 6.8" class="style4"/>
</g>
<rect x="195.7" y="128.5" width="184.9" height="100.3" class="style5"/>
<text transform="matrix(1 0 0 1 251.9863 139.8281)"><tspan x="0" y="0" class="style6">1.5 metres </tspan><tspan x="15.7" y="17.2" class="style6">5 feet</tspan></text>
<g>
	<g>
		
			<line x1="158.3" y1="117" x2="160.5" y2="117" class="style7"/>
		
			<line x1="164.8" y1="117" x2="413.5" y2="117" class="style8"/>
		
			<line x1="415.7" y1="117" x2="417.9" y2="117" class="style7"/>
		<g>
			<polygon points="159.9,122.4 150.6,117 159.9,111.6" class="style4"/>
		</g>
		<g>
			<polygon points="416.3,122.4 425.6,117 416.3,111.6" class="style4"/>
		</g>
	</g>
</g>
<rect x="511.2" y="127.4" width="85.7" height="101.4" class="style5"/>
<text transform="matrix(1 0 0 1 515.8428 138.7314)"><tspan x="0" y="0" class="style6">0.5 metres</tspan><tspan x="12.7" y="17.2" class="style6">1.5 feet</tspan></text>
<g>
	<g>
		
			<line x1="516" y1="117" x2="518.1" y2="117" class="style7"/>
		
			<line x1="522.4" y1="117" x2="587.8" y2="117" class="style9"/>
		
			<line x1="590" y1="117" x2="592.1" y2="117" class="style7"/>
		<g>
			<polygon points="517.6,122.4 508.2,117 517.6,111.6" class="style4"/>
		</g>
		<g>
			<polygon points="590.5,122.4 599.8,117 590.5,111.6" class="style4"/>
		</g>
	</g>
</g>
<g>
	<g>
		<path d="M102.397 145.136c-5.659 9.701-17.236 19.946-24.062 26.622c-18.776-10.928-29.88-17.866-29.88-17.866 s-9.024-0.422-11.768-0.897c-11.426-1.974-10.046-1.277-16.54 2.329c-10.519 5.8 7 17.6 7.6 18.6 c4.607 8.4 33.2 26.1 37.4 31.513c2.702 3.4 18.8 10.5 24.944-2.085c12.654-25.729 16.036-42.43 27.274-56.205 c10.313-12.64 5.966-24.025-0.297-21.029C110.886 129.1 106.3 135.6 102.4 145.136z" class="style3"/>
	</g>
	<path d="M70.765 125.624c0.004-0.211-0.061-0.382-0.104-0.538c-0.506-2.239-1.804-7.962-3.969-17.517 c-0.149-0.663-0.84-3.223-0.998-3.991c-2.298-11.25-12.117-19.833-24.08-20.112c-13.908-0.323-25.443 10.689-25.766 24.6 c-0.309 13.2 5.2 20.9 10.2 26.216c5.904 6.2 17.8 9.4 25.2 9.55c8.663 0.2 10.287-1.928 10.957-5.842 c0.333-1.951 1.667-11.061 1.667-11.061s5.14 0.1 5.4 0.126c0.059 0 0.1 0 0.1 0 C70.155 127 70.8 126.4 70.8 125.6 M58.835 111.117c-1.019 1.344-2.934 1.604-4.279 0.6 c-1.343-1.019-1.606-2.933-0.585-4.276c1.019-1.344 2.935-1.605 4.278-0.586C59.592 107.9 59.9 109.8 58.8 111.1" class="style10"/>
	<path d="M133.396 109.013h-4.326v-5.434c0-0.563-0.456-1.02-1.019-1.02h-11.223c-0.562 0-1.019 0.456-1.019 1 v26.471c0 0.6 0.5 1 1 1.02h11.223c0.562 0 1.019-0.455 1.019-1.02v-5.432h4.326c0.562 0 1.019-0.455 1.019-1.019 v-13.57C134.414 109.5 134 109 133.4 109.013z" class="style10"/>
	<g>
		<path d="M47.492 198.285l15.944 11.277C56.859 204.7 52.9 202 47.5 198.285z" class="style5"/>
		<path d="M114.452 136.134c-9.339 12.223-24.819 35.493-32.421 45.614c-14.927-11.905-17.04-14.006-24.168-19.813 c-9.441-7.694-12.822-13.097-23.473-13.097c-12.033 0-20.685 5.346-25.719 15.89c-3.559 7.457-5.289 17.408-5.289 30.4 c0 7.9 1.4 17.2 2.7 26.098c0.583 3.9 3 19.4 3 19.417h62.714c0 0 0-12.111 0-18.576L29.04 191.8 c-1.215-0.861-1.505-2.541-0.646-3.757c0.859-1.216 2.541-1.506 3.756-0.647l15.342 10.854c5.407 3.7 9.4 6.4 15.9 11.3 l1.618 1.146c13.925 9.5 23.5 5.2 30.608-6.312c21.325-34.756 28.25-49.44 33.796-58.79 C138.622 130.2 122.6 125.4 114.5 136.134z" class="style10"/>
		<path d="M63.44 209.565c0.544 0.4 1.1 0.8 1.6 1.143l-1.618-1.146 C63.438 209.6 63.4 209.6 63.4 209.565z" class="style11"/>
	</g>
</g>
</svg>
