<svg id="Layer_1" data-name="Layer 1" xmlns="http://www.w3.org/2000/svg" xmlns:xlink="http://www.w3.org/1999/xlink" viewBox="0 0 432.35 164.76"><defs><style>.cls-1{fill:none;stroke:#e50020;stroke-miterlimit:10;stroke-width:9.5px;}.cls-2{fill:url(#linear-gradient);}.cls-3{fill:#91cce8;}.cls-4{fill:#005da6;}.cls-5{fill:url(#linear-gradient-2);}</style><linearGradient id="linear-gradient" x1="4036.11" y1="593.21" x2="4475.45" y2="593.21" gradientTransform="matrix(-0.28, 0, 0, -0.28, 1265.41, 205.4)" gradientUnits="userSpaceOnUse"><stop offset="0" stop-color="#91cce8"/><stop offset="0.67" stop-color="#fff" stop-opacity="0"/></linearGradient><linearGradient id="linear-gradient-2" x1="2923.85" y1="-440.74" x2="3537.85" y2="-440.74" gradientTransform="matrix(-0.26, -0.12, 0.12, -0.26, 1214.98, 328.54)" gradientUnits="userSpaceOnUse"><stop offset="0" stop-color="#91cce8"/><stop offset="0.78" stop-color="#fff" stop-opacity="0"/></linearGradient></defs><title>diagram-get-help-not-this-blue</title><line class="cls-1" x1="203.42" y1="55.33" x2="165.35" y2="93.4"/><line class="cls-1" x1="165.35" y1="55.33" x2="203.42" y2="93.4"/><polygon class="cls-2" points="29.7 0 121.82 45.22 29.33 88.42 29.7 0"/><path class="cls-3" d="M119.33,123c-5.41,0-13.44,9.54-17.51,13.43-3,2.89-17.26,16.13-23.21,21.58-16.67-4.33-34.51-14.41-34.51-14.41s-8.85-.94-11.35-1.37a50.77,50.77,0,0,0-7.63-1c-2.81,0-3.66,1-7.42,3.11-9.57,5.31,6.41,16.05,6.89,16.94C28.79,169,60,175.56,63.9,180.48c1.67,2.14,9.51,8.14,16.12,8.14a8.12,8.12,0,0,0,7.72-5c11.52-23.41,19-30.27,29.23-42.81,9.39-11.5,9.08-15.21,4-17.52a3.88,3.88,0,0,0-1.61-.33" transform="translate(-2.45 -57.24)"/><path class="cls-4" d="M63.76,117.32a1.47,1.47,0,0,0-.1-0.49c-0.46-2-1.64-7.25-3.61-15.94-0.14-.6-0.76-2.93-0.91-3.63a22.91,22.91,0,0,0-45.36,4.08c-0.28,12,4.69,19,9.31,23.85,5.37,5.62,16.16,8.53,22.9,8.69,7.88,0.19,9.36-1.75,10-5.32,0.31-1.77,1.52-10.06,1.52-10.06l4.89,0.12h0.14a1.33,1.33,0,0,0,1.24-1.3m-10.85-13.2a2.78,2.78,0,1,1-.53-3.89,2.78,2.78,0,0,1,.53,3.89" transform="translate(-2.45 -57.24)"/><rect class="cls-4" x="118.49" y="38.11" width="6.67" height="30.85" rx="0.93" ry="0.93"/><path class="cls-4" d="M115.19,129.89c-6.31,6.65-33.8,35.06-33.8,35.06S58.51,155.64,52,150.36c-8.59-7-12.27-12.3-22-12.3-11,0-18.22,5.25-22.8,14.84C4,159.68,2.45,168.74,2.45,180.58c0,7.2,1.26,15.61,2.49,23.75C5.47,207.86,7.66,222,7.66,222H64.72V191.61l-37.9-13.3a2.45,2.45,0,0,1,1.79-4.57l1.58,0.56h0l42,15c13,4.65,16.1,1.12,20.64-4.68,14.87-19,28.81-37,35.17-45.16C138,126.54,123.62,121,115.19,129.89Z" transform="translate(-2.45 -57.24)"/><polygon class="cls-5" points="307.36 12.24 413.62 90.06 285.97 95.61 307.36 12.24"/><path class="cls-4" d="M313.86,127.72a1.59,1.59,0,0,0,0-.5c0-2.09,0-7.43.06-16.34,0-.62-0.09-3-0.07-3.74a22.92,22.92,0,0,0-45.12-6.2c-3,11.67.3,19.59,3.72,25.34,4,6.68,13.84,11.94,20.37,13.61,7.64,1.95,9.52.39,10.91-2.94,0.7-1.66,3.74-9.47,3.74-9.47l4.74,1.21,0.13,0a1.33,1.33,0,0,0,1.5-1m-7.62-15.3a2.78,2.78,0,1,1,.35-3.91,2.78,2.78,0,0,1-.35,3.91" transform="translate(-2.45 -57.24)"/><path class="cls-4" d="M434.8,222H425v-6.92H329.15v-9.81H429.9a4.91,4.91,0,0,1,4.9,4.91V222Z" transform="translate(-2.45 -57.24)"/><path class="cls-4" d="M360,201.22h44.36a5.53,5.53,0,0,0,5.47-5.55c0-3-2.45-2.45-5.47-2.45h-53C351.36,199.48,354.33,201.22,360,201.22Z" transform="translate(-2.45 -57.24)"/><path class="cls-4" d="M412.55,190.24l7-41c0.84-4.55-1.43-7.37-6.46-8.37L404,194.7c-0.49,3-.73.72,2.25,1.22C406.52,196,411.72,194.58,412.55,190.24Z" transform="translate(-2.45 -57.24)"/><path class="cls-4" d="M374.22,178.35l-49.56,4c-1.47-1-19.26-17.78-26-24.12-8-7.53-16.09-19.79-25.78-19.79-10.95,0-18.82,4.87-23.4,14.46-3.24,6.78-2.85,15.84-2.85,27.68V222H307V201.63L268.86,178.4a2.45,2.45,0,0,1,2.55-4.19l42.88,26.14c4.58,2.79,9.52,3.87,17.33,2.27,14-2.86,21-4.25,36.1-6.86,5.84-1,8.45.49,9.72,1.51s10.5-.59,11-1.92C390.89,188.57,388.76,177.16,374.22,178.35Z" transform="translate(-2.45 -57.24)"/><path class="cls-4" d="M241.72,180.22a4.9,4.9,0,1,0-9.81,0V222h9.81V180.22Z" transform="translate(-2.45 -57.24)"/></svg>