<svg id="Layer_1" data-name="Layer 1" xmlns="http://www.w3.org/2000/svg" xmlns:xlink="http://www.w3.org/1999/xlink" viewBox="0 0 450.32 219.37"><defs><style>.cls-1{fill:url(#linear-gradient);}.cls-2{fill:#005da6;}.cls-3{fill:#91cce8;}.cls-4,.cls-6{fill:none;}.cls-5{fill:#fff;}.cls-6{stroke:#2faf22;stroke-miterlimit:10;stroke-width:9.5px;}</style><linearGradient id="linear-gradient" x1="128.61" y1="109.95" x2="575.27" y2="109.95" gradientTransform="matrix(1, 0, 0, -1, 0, 219.64)" gradientUnits="userSpaceOnUse"><stop offset="0" stop-color="#91cce8"/><stop offset="0.67" stop-color="#fff" stop-opacity="0"/></linearGradient></defs><title>diagram-get-help-do-this-blue</title><polygon class="cls-1" points="450.32 219.37 119.77 106.45 450.32 0 450.32 219.37"/><path class="cls-2" d="M342.6,117a1.29,1.29,0,0,0,1.28,1.3H344l4.9-.11s1.22,8.29,1.55,10.08c0.61,3.55,2.1,5.47,10,5.29,6.75-.16,17.56-3.08,22.94-8.7C388,120,393,113,392.71,101a23,23,0,0,0-45.43-4.09c-0.14.7-.77,3-0.91,3.64l-3.62,15.95a0.53,0.53,0,0,0-.11.52m10.83-13.19a2.79,2.79,0,1,1,3.92.53,2.79,2.79,0,0,1-3.92-.53" transform="translate(0 -2.63)"/><path class="cls-2" d="M407.67,222H348.8V181s0-34.69,19.41-41.88a25.26,25.26,0,0,1,8.75-1.24c10.38,0,16.86,4.56,21.6,13.59a43.2,43.2,0,0,1,3.65,10.25h0s2.55,9.57,5.1,28.72c0.72,5.29,1.46,11,2.64,21.67a14.83,14.83,0,0,1-2.24,9.87h0Zm-21,0,1.75-5.43a2.47,2.47,0,0,0,0-1.47L377,177.15a2.46,2.46,0,0,0-4.7,1.42l11.26,37.19-2,6.2" transform="translate(0 -2.63)"/><path class="cls-3" d="M90.24,134.91c-5.16,8.84-15.71,18.18-21.93,24.26-17.11-10-27.23-16.28-27.23-16.28s-8.22-.38-10.72-0.82c-10.41-1.8-9.16-1.16-15.07,2.12-9.59,5.29,6.38,16,6.93,17,4.2,7.66,30.26,23.79,34.09,28.72C58.75,193,73.42,199.43,79,188c11.53-23.45,14.61-38.67,24.86-51.22,9.4-11.52,5.44-21.9-.27-19.17s-9.81,8.64-13.37,17.33h0Z" transform="translate(0 -2.63)"/><path class="cls-2" d="M61.41,117.12a1.62,1.62,0,0,0-.09-0.49l-3.62-16c-0.14-.6-0.77-2.94-0.91-3.64a23,23,0,0,0-45.43,4.09c-0.28,12,4.74,19,9.3,23.89,5.38,5.65,16.22,8.57,23,8.7,7.9,0.18,9.38-1.76,10-5.32,0.3-1.78,1.52-10.08,1.52-10.08s4.68,0.09,4.92.11h0.09a1.35,1.35,0,0,0,1.3-1.33m-10.9-13.2A2.78,2.78,0,1,1,50,100a2.69,2.69,0,0,1,.5,3.87" transform="translate(0 -2.63)"/><path class="cls-2" d="M118.49,102h-3.94V97a0.93,0.93,0,0,0-.93-0.93H103.39a0.93,0.93,0,0,0-.93.91v24.12a0.94,0.94,0,0,0,.91.93H113.6a0.93,0.93,0,0,0,.93-0.93v-5h3.94a0.93,0.93,0,0,0,.93-0.93V102.89a0.88,0.88,0,0,0-.91-0.91h0Z" transform="translate(0 -2.63)"/><path class="cls-4" d="M40.2,183.34l14.53,10.28c-6-4.43-9.6-6.89-14.52-10.28h0Z" transform="translate(0 -2.63)"/><path class="cls-2" d="M101.23,126.7C92.71,137.84,78.61,159,71.68,168.27c-13.6-10.85-15.53-12.76-22-18.06-8.6-7-11.69-11.94-21.39-11.94-11,0-18.85,4.87-23.44,14.48C1.58,159.56,0,168.63,0,180.47c0,7.2,1.28,15.68,2.46,23.78,0.53,3.55,2.73,17.68,2.73,17.7H62.35V205l-39-27.58a2.46,2.46,0,0,1,2.83-4l14,9.89c4.93,3.37,8.57,5.83,14.49,10.3l1.47,1c12.69,8.66,21.42,4.74,27.9-5.75,19.43-31.68,25.75-45.06,30.8-53.58,8.39-14-6.21-18.4-13.59-8.62h0Z" transform="translate(0 -2.63)"/><path class="cls-5" d="M54.74,193.62c0.5,0.36,1,.73,1.46,1l-1.47-1s0,0,0,0h0Z" transform="translate(0 -2.63)"/><polyline class="cls-6" points="205.7 125.22 176.44 154.48 161.56 139.59"/></svg>