<svg xmlns="http://www.w3.org/2000/svg" xmlns:xlink="http://www.w3.org/1999/xlink" version="1.1" id="Layer_1" x="0px" y="0px" width="389px" height="119px" viewBox="0 0 389 119" enable-background="new 0 0 389 119" xml:space="preserve">
<g>
	<g>
		<path fill="#000" d="M160.863 43.426c-0.436-1.198-2.086-5.695-3.619-9.787c-0.297-0.788-0.891-1.422-1.736-1.422h-29.674 c-0.844 0-1.455 0.631-1.74 1.422c-1.264 3.512-3.133 8.504-3.613 9.787H86.333V119h108.675v-5.614V49.303v-5.877H160.863z M169.354 109.354H95.981v-56.28h73.372V109.354z M182.18 77.977c-2.768 0-5.01-2.242-5.01-5.01c0-2.766 2.242-5.008 5.01-5.008 s5.012 2.24 5.01 5.008C187.191 75.73 184.95 77.98 182.18 77.977z M182.18 62.98c-2.768 0-5.01-2.244-5.01-5.01 c0-2.767 2.242-5.011 5.01-5.011s5.012 2.24 5.01 5.011C187.191 60.74 184.95 62.98 182.18 62.98z"/>
		<g>
			<path fill="#000" d="M133.094 80.621c5.404 0 9.783-4.379 9.783-9.782c0-5.406-4.379-9.788-9.783-9.788 c-5.406 0-9.785 4.382-9.785 9.788C123.309 76.24 127.69 80.62 133.09 80.621z"/>
			<path fill="#000" d="M150.295 88.152c0 0-3.902-3.971-17.201-3.971s-17.199 3.971-17.199 3.971v15.614h34.4V88.152z"/>
		</g>
	</g>
	<g>
		<path fill="#000" d="M0 20.614v80.121V119h60.341v-18.266V20.614H0z M30.169 114.877c-2.768 0-5.01-2.242-5.01-5.01 c0-2.767 2.242-5.009 5.01-5.009s5.012 2.24 5.01 5.009C35.181 112.64 32.94 114.88 30.17 114.877z M51.978 100.734H8.363 V28.975h43.615V100.734z"/>
		<g>
			<path fill="#000" d="M38.662 57.718c0 4.692-3.799 8.497-8.494 8.497c-4.691 0-8.494-3.805-8.494-8.497 s3.803-8.497 8.494-8.497C34.863 49.22 38.66 53.02 38.66 57.718z"/>
			<g>
				<path fill="#000" d="M45.101 94.945V75.312c0 0-3.385-4.994-14.934-4.994s-14.93 4.994-14.93 4.994v19.633H45.101z"/>
			</g>
		</g>
	</g>
	<g>
		<path fill="#000" d="M358.069 0H221v119h137.069H389V0H358.069z M367 109H231V11h136V109z M377.888 64.52 c-2.792 0-5.055-2.263-5.055-5.054c0-2.791 2.263-5.054 5.055-5.054c2.79 0 5.05 2.26 5.05 5.05 C382.941 62.26 380.68 64.52 377.89 64.518z"/>
		<g>
			<path fill="#000" d="M296.875 62.938c9.648 0 17.466-7.818 17.466-17.464c0-9.652-7.818-17.475-17.466-17.475 c-9.651 0-17.469 7.823-17.469 17.475C279.406 55.12 287.22 62.94 296.88 62.938z"/>
			<path fill="#000" d="M327.583 76.383c0 0-6.967-7.089-30.708-7.089c-23.742 0-30.706 7.089-30.706 7.089v27.876h61.414V76.383 z"/>
		</g>
	</g>
</g>
</svg>
