<?xml version="1.0" encoding="utf-8"?>
<!-- Generator: Adobe Illustrator 19.2.1, SVG Export Plug-In . SVG Version: 6.00 Build 0)  -->
<svg version="1.1" id="Layer_1" xmlns="http://www.w3.org/2000/svg" xmlns:xlink="http://www.w3.org/1999/xlink" x="0px" y="0px"
	 viewBox="0 0 630 240.7" style="enable-background:new 0 0 630 240.7;" xml:space="preserve">
<style type="text/css">
	.st0{fill:url(#SVGID_1_);}
	.st1{fill:#005DA6;}
	.st2{fill:none;}
	.st3{font-family:'ArialMT';}
	.st4{font-size:16.1693px;}
	.st5{fill:none;stroke:#005DA6;stroke-width:2.1559;stroke-miterlimit:10;}
	.st6{fill:none;stroke:#005DA6;stroke-width:2.1559;stroke-miterlimit:10;stroke-dasharray:4.326;}
	.st7{fill:none;stroke:#005DA6;stroke-width:2.1559;stroke-miterlimit:10;stroke-dasharray:4.2244;}
	.st8{fill:#91CCE8;}
	.st9{fill:#FFFFFF;}
</style>
<linearGradient id="SVGID_1_" gradientUnits="userSpaceOnUse" x1="144.5" y1="119.38" x2="634.6" y2="119.38" gradientTransform="matrix(1 0 0 -1 0 239.73)">
	<stop  offset="0" style="stop-color:#91CCE8"/>
	<stop  offset="0.665" style="stop-color:#FFFFFF;stop-opacity:0"/>
</linearGradient>
<polygon class="st0" points="497.5,240.7 134.8,116.8 497.5,0 "/>
<rect x="612.7" y="0" class="st1" width="17.2" height="240.7"/>
<g>
	<path class="st1" d="M437.5,125.5c0,0.8,0.6,1.4,1.4,1.4c0.1,0,0.1,0,0.1,0c0.2,0,5.4-0.1,5.4-0.1s1.3,9.1,1.7,11.1
		c0.7,3.9,2.3,6,11,5.8c7.4-0.2,19.3-3.4,25.2-9.6c5.1-5.3,10.5-13,10.2-26.2C492.1,94,480.6,83,466.7,83.3
		c-12,0.3-21.8,8.9-24.1,20.1c-0.2,0.8-0.8,3.3-1,4c-2.2,9.6-3.5,15.3-4,17.5C437.5,125.1,437.4,125.3,437.5,125.5 M449.4,111
		c-1-1.3-0.8-3.3,0.6-4.3c1.3-1,3.3-0.8,4.3,0.6s0.8,3.3-0.6,4.3C452.3,112.6,450.4,112.4,449.4,111"/>
	<path class="st1" d="M508.9,240.7h-4.2h-10h-50.3V220v-16.8c0-0.3,0-4.3,0-7.6c0,0,0-38.1,21.3-46c2.9-1.1,6.1-1.4,9.6-1.4
		c11.4,0,18.5,5,23.7,14.9c1.8,3.5,3.1,7.4,4,11.2h0c0,0,2.8,10.5,5.6,31.5c0.8,5.8,1.6,12.1,2.9,23.8
		C512.1,236.3,508.9,240.7,508.9,240.7L508.9,240.7z M485.8,240.7l1.9-6c0.2-0.5,0.2-1.1,0-1.6l-12.6-41.6c-0.4-1.4-1.9-2.2-3.4-1.8
		c-1.4,0.4-2.2,1.9-1.8,3.4l12.4,40.8l-2.2,6.8"/>
</g>
<rect x="195.7" y="128.5" class="st2" width="184.9" height="100.3"/>
<text transform="matrix(1 0 0 1 251.9863 139.8281)" class="st1 st3 st4">1.5 metres </text>
<text transform="matrix(1 0 0 1 267.6863 157.0281)" class="st1 st3 st4">5 feet</text>
<g>
	<g>
		<line class="st5" x1="158.3" y1="117" x2="160.5" y2="117"/>
		<line class="st6" x1="164.8" y1="117" x2="413.5" y2="117"/>
		<line class="st5" x1="415.7" y1="117" x2="417.9" y2="117"/>
		<g>
			<polygon class="st1" points="159.9,122.4 150.6,117 159.9,111.6 			"/>
		</g>
		<g>
			<polygon class="st1" points="416.3,122.4 425.6,117 416.3,111.6 			"/>
		</g>
	</g>
</g>
<rect x="511.2" y="127.4" class="st2" width="85.7" height="101.4"/>
<text transform="matrix(1 0 0 1 515.8428 138.7314)" class="st1 st3 st4">0.5 metres</text>
<text transform="matrix(1 0 0 1 528.5428 155.9314)" class="st1 st3 st4">1.5 feet</text>
<g>
	<g>
		<line class="st5" x1="516" y1="117" x2="518.1" y2="117"/>
		<line class="st7" x1="522.4" y1="117" x2="587.8" y2="117"/>
		<line class="st5" x1="590" y1="117" x2="592.1" y2="117"/>
		<g>
			<polygon class="st1" points="517.6,122.4 508.2,117 517.6,111.6 			"/>
		</g>
		<g>
			<polygon class="st1" points="590.5,122.4 599.8,117 590.5,111.6 			"/>
		</g>
	</g>
</g>
<g>
	<g>
		<path class="st8" d="M102.4,145.1c-5.7,9.7-17.2,19.9-24.1,26.6c-18.8-10.9-29.9-17.9-29.9-17.9s-9-0.4-11.8-0.9
			c-11.4-2-10-1.3-16.5,2.3c-10.5,5.8,7,17.6,7.6,18.6c4.6,8.4,33.2,26.1,37.4,31.5c2.7,3.4,18.8,10.5,24.9-2.1
			c12.7-25.7,16-42.4,27.3-56.2c10.3-12.6,6-24-0.3-21C110.9,129.1,106.3,135.6,102.4,145.1L102.4,145.1z"/>
	</g>
	<path class="st1" d="M70.8,125.6c0-0.2-0.1-0.4-0.1-0.5c-0.5-2.2-1.8-8-4-17.5c-0.1-0.7-0.8-3.2-1-4c-2.3-11.2-12.1-19.8-24.1-20.1
		c-13.9-0.3-25.4,10.7-25.8,24.6C15.5,121.3,21,129,26,134.3c5.9,6.2,17.8,9.4,25.2,9.6c8.7,0.2,10.3-1.9,11-5.8
		c0.3-2,1.7-11.1,1.7-11.1s5.1,0.1,5.4,0.1c0.1,0,0.1,0,0.1,0C70.2,127,70.8,126.4,70.8,125.6 M58.8,111.1c-1,1.3-2.9,1.6-4.3,0.6
		c-1.3-1-1.6-2.9-0.6-4.3c1-1.3,2.9-1.6,4.3-0.6C59.6,107.9,59.9,109.8,58.8,111.1"/>
	<path class="st1" d="M133.4,109h-4.3v-5.4c0-0.6-0.5-1-1-1h-11.2c-0.6,0-1,0.5-1,1V130c0,0.6,0.5,1,1,1H128c0.6,0,1-0.5,1-1v-5.4
		h4.3c0.6,0,1-0.5,1-1V110C134.4,109.5,134,109,133.4,109L133.4,109z"/>
	<g>
		<path class="st2" d="M47.5,198.3l15.9,11.3C56.9,204.7,52.9,202,47.5,198.3L47.5,198.3z"/>
		<path class="st1" d="M114.5,136.1c-9.3,12.2-24.8,35.5-32.4,45.6c-14.9-11.9-17-14-24.2-19.8c-9.4-7.7-12.8-13.1-23.5-13.1
			c-12,0-20.7,5.3-25.7,15.9c-3.6,7.5-5.3,17.4-5.3,30.4c0,7.9,1.4,17.2,2.7,26.1c0.6,3.9,3,19.4,3,19.4h62.7c0,0,0-12.1,0-18.6
			L29,191.8c-1.2-0.9-1.5-2.5-0.6-3.8s2.5-1.5,3.8-0.6l15.3,10.9c5.4,3.7,9.4,6.4,15.9,11.3l1.6,1.1c13.9,9.5,23.5,5.2,30.6-6.3
			c21.3-34.8,28.2-49.4,33.8-58.8C138.6,130.2,122.6,125.4,114.5,136.1L114.5,136.1z"/>
		<path class="st9" d="M63.4,209.6c0.5,0.4,1.1,0.8,1.6,1.1L63.4,209.6C63.4,209.6,63.4,209.6,63.4,209.6L63.4,209.6z"/>
	</g>
</g>
</svg>
