<?xml version="1.0" encoding="utf-8"?>
<!-- Generator: Adobe Illustrator 19.2.1, SVG Export Plug-In . SVG Version: 6.00 Build 0)  -->
<svg version="1.1" id="Layer_1" xmlns="http://www.w3.org/2000/svg" xmlns:xlink="http://www.w3.org/1999/xlink" x="0px" y="0px"
	 viewBox="0 0 299.9 181.2" style="enable-background:new 0 0 299.9 181.2;" xml:space="preserve">
<style type="text/css">
	.st0{fill:none;stroke:#000000;stroke-width:6;stroke-linecap:round;stroke-linejoin:round;stroke-miterlimit:10;}
	.st1{fill:#A9C7E0;}
	.st2{fill:#005EA5;}
	.st3{fill:#FFFFFF;}
	.st4{fill:none;stroke:#AF1324;stroke-width:9.5;stroke-miterlimit:10;}
	.st5{fill:none;stroke:#FFFFFF;stroke-width:4.2015;stroke-miterlimit:10;}
	.st6{fill:none;stroke:#2FAF22;stroke-width:9.5;stroke-miterlimit:10;}
	.st7{fill:none;stroke:#005EA5;stroke-width:3.178;stroke-miterlimit:10;}
	.st8{fill:none;stroke:#9D9D9C;stroke-miterlimit:10;}
	.st9{fill:none;stroke:#FFFFFF;stroke-width:7.0025;stroke-linecap:round;stroke-linejoin:round;stroke-miterlimit:10;}
	.st10{fill:#005EA5;stroke:#FFFFFF;stroke-width:7.0025;stroke-miterlimit:10;}
</style>
<g>
	<polyline class="st0" points="254.2,40.8 268.4,34.7 292.7,65.3 284.1,104.4 296.4,130.2 	"/>
	<g>
		<path class="st1" d="M245.7,103.2c-0.3-0.9-0.7-2.3-1.2-4.1h-59.3V13.8H258v63.5c2.2,4.2,3.7,7.2,3.7,7.2l3.7-2.7V6.4h-87.6v100.1
			h69.1C246.3,105.2,245.9,104.1,245.7,103.2z"/>
	</g>
	<path class="st2" d="M187.7,15.9v81.3h55.9c-3.8-12.6-13.6-44.6-13.5-45.9c1-7.6,11.7-5.5,15.3,2.8c2.4,5.5,7.4,15.5,10.9,22.3
		V15.9H187.7z"/>
	<path class="st3" d="M229.8,51.6c1-7.3,10.9-5.6,14.9,1.9h10.1v-3.8l-0.2-0.4c-0.3-0.5-3.1-5.3-14.7-5.3c-11.6,0-14.5,4.7-14.7,5.3
		l-0.2,0.4v3.8h5.2C230,52.5,229.8,51.8,229.8,51.6z"/>
	<g>
		<path class="st3" d="M244.1,101.1c-0.3-0.9-0.7-2.2-1.2-3.9H187V15.9h68.6v60.4c2,4,3.5,6.9,3.5,6.9l3.5-2.6V8.9H180v95.3h65.2
			C244.7,103,244.4,101.9,244.1,101.1z"/>
	</g>
	<path class="st3" d="M235,69.1c-1.7,1.5-2.8,3.7-2.8,6.1c0,4.1,3.1,7.5,7.1,8C237.9,78.6,236.4,73.7,235,69.1z"/>
	<path class="st3" d="M240.7,86.8c-0.2,0-0.3,0-0.5,0c-11.6,0-14.5,4.7-14.7,5.3l-0.2,0.4v3.8h18.3
		C242.8,93.6,241.8,90.4,240.7,86.8z"/>
	<line class="st4" x1="257.9" y1="144.6" x2="224.9" y2="177.6"/>
	<line class="st4" x1="224.9" y1="144.6" x2="257.9" y2="177.6"/>
	<g>
		<path class="st3" d="M218.2,49c-0.3-0.5-3.1-5.3-14.7-5.3c-11.6,0-14.5,4.7-14.7,5.3l-0.2,0.4v3.8h29.9v-3.8L218.2,49z"/>
	</g>
	<g>
		<path class="st3" d="M203.4,24.1c-4.4,0-8,3.6-8,8s3.6,8,8,8s8-3.6,8-8S207.9,24.1,203.4,24.1z"/>
	</g>
	<line class="st5" x1="221.7" y1="12.4" x2="221.7" y2="101.8"/>
	<g>
		<path class="st3" d="M239.9,24.1c-4.4,0-8,3.6-8,8s3.6,8,8,8s8-3.6,8-8S244.4,24.1,239.9,24.1z"/>
	</g>
	<g>
		<path class="st3" d="M218.2,91.7c-0.3-0.5-3.1-5.3-14.7-5.3c-11.6,0-14.5,4.7-14.7,5.3l-0.2,0.4v3.8h29.9v-3.8L218.2,91.7z"/>
	</g>
	<g>
		<path class="st3" d="M203.4,66.9c-4.4,0-8,3.6-8,8.1c0,4.4,3.6,8,8,8s8-3.6,8-8C211.5,70.5,207.9,66.9,203.4,66.9z"/>
	</g>
	<line class="st5" x1="227.7" y1="56.5" x2="183.9" y2="56.5"/>
	<line class="st5" x1="231.3" y1="56.5" x2="227.7" y2="56.5"/>
	<line class="st5" x1="232.3" y1="56.5" x2="231.3" y2="56.5"/>
	<line class="st5" x1="259.5" y1="56.5" x2="245.7" y2="56.5"/>
	<path class="st0" d="M269.3,76l-9.8,7.2c0,0-10.5-20.4-14.4-29.1c-3.6-8.2-14.2-10.3-15.3-2.8c-0.2,1.5,12.4,42.3,14.6,49.8
		c1.3,4.4,5.8,16.4,13.7,16.4"/>
</g>
<polyline class="st0" points="82.4,36.7 96.7,30.6 120.9,61.3 112.4,100.3 124.7,126.1 "/>
<path class="st2" d="M69.9,88.3c-6,3.2-12.8,5-20.1,5c-23.7,0-43-19.2-43-43c0-23.7,19.2-43,43-43c23.7,0,43,19.2,43,43
	c0,9.1-2.8,17.5-7.6,24.4c1.5,2.9,2.4,4.7,2.4,4.7l5.3-3.8c4.4-7.4,6.9-16.1,6.9-25.3c0-27.5-22.4-50-50-50c-27.5,0-50,22.4-50,50
	s22.4,50,50,50c7.9,0,15.4-1.9,22.1-5.2C71.4,93.3,70.7,91,69.9,88.3z"/>
<path class="st1" d="M49.8,93.3c7.2,0,14.1-1.8,20.1-5C67.7,81,64.6,71,62.2,62.8c-3.2,3.1-7.5,5.1-12.4,5.1
	c-9.7,0-17.6-7.9-17.6-17.6s7.9-17.6,17.6-17.6c7.2,0,13.5,4.4,16.2,10.7c0.2,0.1,0.3,0.1,0.5,0.2c2.7,1.1,5.3,3.4,6.8,6.8
	c2.7,6.1,8.6,17.8,11.9,24.4c4.8-6.9,7.6-15.3,7.6-24.4c0-23.7-19.2-43-43-43c-23.7,0-43,19.2-43,43C6.9,74,26.1,93.3,49.8,93.3z"/>
<polyline class="st6" points="84,147.8 57.3,174.5 43.7,160.9 "/>
<circle class="st2" cx="49.8" cy="50.3" r="10.1"/>
<path class="st7" d="M63.4,62.4c-3.2,3.4-7.7,5.5-12.7,5.5c-9.7,0-17.6-7.9-17.6-17.6S41,32.7,50.7,32.7c7,0,13,4.1,15.8,10"/>
<path class="st8" d="M86.4,113.4c-7.9,0-12.4-12-13.7-16.4c-2.2-7.5-14.8-48.3-14.6-49.8c1-7.6,11.7-5.5,15.3,2.8
	c3.9,8.8,14.4,29.1,14.4,29.1l9.8-7.2"/>
<path class="st0" d="M97.6,72l-9.8,7.2c0,0-10.5-20.4-14.4-29.1c-3.6-8.2-14.2-10.3-15.3-2.8C57.9,48.7,70.5,89.5,72.7,97
	c1.3,4.4,5.8,16.4,13.7,16.4"/>
<line class="st4" x1="-178.8" y1="144.6" x2="-211.7" y2="177.6"/>
<line class="st4" x1="-211.7" y1="144.6" x2="-178.8" y2="177.6"/>
<polyline class="st6" points="-352.7,147.8 -379.4,174.5 -393,160.9 "/>
<polyline class="st9" points="-182.5,40.8 -168.2,34.7 -144,65.3 -152.5,104.4 -140.3,130.2 "/>
<rect x="-252.8" y="12.4" class="st10" width="75.6" height="88.3"/>
<path class="st3" d="M-218.5,49c-0.3-0.5-3.1-5.3-14.7-5.3c-11.6,0-14.5,4.7-14.7,5.3l-0.2,0.4v3.8h29.9v-3.8L-218.5,49z"/>
<path class="st3" d="M-233.2,24.1c-4.4,0-8,3.6-8,8s3.6,8,8,8s8-3.6,8-8S-228.8,24.1-233.2,24.1z"/>
<line class="st5" x1="-215" y1="12.4" x2="-215" y2="101.8"/>
<line class="st5" x1="-177.2" y1="56.5" x2="-252.8" y2="56.5"/>
<path class="st3" d="M-182,49c-0.3-0.5-3.1-5.3-14.7-5.3c-11.6,0-14.5,4.7-14.7,5.3l-0.2,0.4v3.8h29.9v-3.8L-182,49z"/>
<path class="st3" d="M-196.7,24.1c-4.4,0-8,3.6-8,8s3.6,8,8,8s8-3.6,8-8S-192.3,24.1-196.7,24.1z"/>
<path class="st3" d="M-218.5,91.7c-0.3-0.5-3.1-5.3-14.7-5.3c-11.6,0-14.5,4.7-14.7,5.3l-0.2,0.4v3.8h29.9v-3.8L-218.5,91.7z"/>
<path class="st3" d="M-233.2,66.9c-4.4,0-8,3.6-8,8.1c0,4.4,3.6,8,8,8s8-3.6,8-8C-225.2,70.5-228.8,66.9-233.2,66.9z"/>
<path class="st3" d="M-182,91.7c-0.3-0.5-3.1-5.3-14.7-5.3c-11.6,0-14.5,4.7-14.7,5.3l-0.2,0.4v3.8h29.9v-3.8L-182,91.7z"/>
<path class="st3" d="M-196.7,66.9c-4.4,0-8,3.6-8,8.1c0,4.4,3.6,8,8,8s8-3.6,8-8C-188.7,70.5-192.3,66.9-196.7,66.9z"/>
<path class="st2" d="M-172.4,117.4c-7.9,0-18.5-12-19.8-16.4c-2.2-7.5-14.8-48.3-14.6-49.8c1-7.6,11.7-5.5,15.3,2.8
	c3.9,8.8,14.4,29.1,14.4,29.1l9.8-7.2"/>
<path class="st2" d="M-178.5,117.4c-7.9,0-12.4-12-13.7-16.4c-2.2-7.5-14.8-48.3-14.6-49.8c1-7.6,11.7-5.5,15.3,2.8
	c3.9,8.8,14.4,29.1,14.4,29.1l9.8-7.2"/>
<path class="st9" d="M-167.4,76l-9.8,7.2c0,0-10.5-20.4-14.4-29.1c-3.6-8.2-14.2-10.3-15.3-2.8c-0.2,1.5,12.4,42.3,14.6,49.8
	c1.3,4.4,5.8,16.4,13.7,16.4"/>
<polyline class="st0" points="-354.2,36.7 -340,30.6 -315.7,61.3 -324.2,100.3 -312,126.1 "/>
<path class="st2" d="M452.7,7.2v81.3h55.9c-3.8-12.6-13.6-44.6-13.5-45.9c1-7.6,11.7-5.5,15.3,2.8c2.4,5.5,7.4,15.5,10.9,22.3V7.2
	H452.7z"/>
<polyline class="st9" points="519.2,32.1 533.4,26 557.7,56.7 549.1,95.7 561.4,121.5 "/>
<g>
	<path class="st3" d="M528,95.5h-82.6V0.2H528V95.5z M452.4,88.5H521V7.2h-68.6V88.5z"/>
</g>
<g>
	<path class="st3" d="M483.2,40.3c-0.3-0.5-3.1-5.3-14.7-5.3s-14.5,4.7-14.7,5.3l-0.2,0.4v3.8h29.9v-3.8L483.2,40.3z"/>
</g>
<g>
	<path class="st3" d="M468.4,15.5c-4.4,0-8,3.6-8,8s3.6,8,8,8s8-3.6,8-8S472.9,15.5,468.4,15.5z"/>
</g>
<line class="st5" x1="486.7" y1="3.7" x2="486.7" y2="93.1"/>
<line class="st5" x1="524.5" y1="47.9" x2="448.9" y2="47.9"/>
<g>
	<path class="st3" d="M504.9,15.5c-4.4,0-8,3.6-8,8s3.6,8,8,8s8-3.6,8-8S509.4,15.5,504.9,15.5z"/>
</g>
<g>
	<path class="st3" d="M483.2,83.1c-0.3-0.5-3.1-5.3-14.7-5.3s-14.5,4.7-14.7,5.3l-0.2,0.4v3.8h29.9v-3.8L483.2,83.1z"/>
</g>
<g>
	<path class="st3" d="M468.4,58.2c-4.4,0-8,3.6-8,8.1c0,4.4,3.6,8,8,8s8-3.6,8-8C476.5,61.8,472.9,58.2,468.4,58.2z"/>
</g>
<g>
	<path class="st3" d="M519.7,83.1c-0.3-0.5-3.1-5.3-14.7-5.3c-11.6,0-14.5,4.7-14.7,5.3l-0.2,0.4v3.8H520v-3.8L519.7,83.1z"/>
</g>
<g>
	<path class="st3" d="M504.9,58.2c-4.4,0-8,3.6-8,8.1c0,4.4,3.6,8,8,8s8-3.6,8-8C513,61.8,509.4,58.2,504.9,58.2z"/>
</g>
<path class="st9" d="M534.3,67.4l-9.8,7.2c0,0-10.5-20.4-14.4-29.1c-3.6-8.2-14.2-10.3-15.3-2.8c-0.2,1.5,12.4,42.3,14.6,49.8
	c1.3,4.4,5.8,16.4,13.7,16.4"/>
</svg>
