<svg xmlns="http://www.w3.org/2000/svg" xmlns:xlink="http://www.w3.org/1999/xlink" version="1.1" id="Layer_1" x="0px" y="0px" width="299.907px" height="181.197px" viewBox="0 0 299.907 181.197" enable-background="new 0 0 299.907 181.197" xml:space="preserve">
<g>
    <g>

            <line fill="none" stroke="#AF1324" stroke-width="9.5" stroke-miterlimit="10" x1="257.888" y1="144.649" x2="224.938" y2="177.604"/>

            <line fill="none" stroke="#AF1324" stroke-width="9.5" stroke-miterlimit="10" x1="224.937" y1="144.649" x2="257.888" y2="177.604"/>
    </g>
    <polyline fill="none" stroke="#2FAF22" stroke-width="9.5" stroke-miterlimit="10" points="83.978,147.774 57.276,174.479         43.693,160.897  "/>
    <g>

            <polyline fill="none" stroke="#FFFFFF" stroke-width="7.0025" stroke-linecap="round" stroke-linejoin="round" stroke-miterlimit="10" points="             254.154,40.775 268.434,34.701 292.673,65.331 284.149,104.352 296.406,130.17         "/>

            <rect x="183.868" y="12.381" fill="#005EA5" stroke="#FFFFFF" stroke-width="7.0025" stroke-miterlimit="10" width="75.611" height="88.311"/>
        <g>
            <g>
                <path fill="#FFFFFF" d="M218.155,49.006c-0.282-0.541-3.102-5.284-14.736-5.286c-11.634,0.002-14.457,4.743-14.74,5.286                     l-0.19,0.359l0.001,3.842h29.856v-3.842L218.155,49.006z"/>
            </g>
            <g>
                <path fill="#FFFFFF" d="M203.419,24.148c-4.438,0-8.049,3.611-8.049,8.049s3.611,8.049,8.049,8.047                     c4.438,0,8.047-3.609,8.047-8.047S207.856,24.148,203.419,24.148z"/>
            </g>
        </g>

            <line fill="none" stroke="#FFFFFF" stroke-width="4.2015" stroke-miterlimit="10" x1="221.675" y1="12.381" x2="221.675" y2="101.811"/>

            <line fill="none" stroke="#FFFFFF" stroke-width="4.2015" stroke-miterlimit="10" x1="259.479" y1="56.535" x2="183.868" y2="56.535"/>
        <g>
            <g>
                <path fill="#FFFFFF" d="M254.657,49.006c-0.285-0.541-3.104-5.284-14.739-5.286c-11.633,0.002-14.456,4.743-14.739,5.286                     l-0.189,0.359v3.842h29.855v-3.842L254.657,49.006z"/>
            </g>
            <g>
                <path fill="#FFFFFF" d="M239.918,24.148c-4.437,0-8.049,3.611-8.049,8.049c0.001,4.438,3.612,8.049,8.049,8.047                     c4.439,0,8.048-3.609,8.048-8.047S244.357,24.148,239.918,24.148z"/>
            </g>
        </g>
        <g>
            <g>
                <path fill="#FFFFFF" d="M218.155,91.74c-0.282-0.541-3.102-5.282-14.736-5.285c-11.634,0.003-14.457,4.742-14.74,5.285                     l-0.19,0.361l0.001,3.84h29.856v-3.84L218.155,91.74z"/>
            </g>
            <g>
                <path fill="#FFFFFF" d="M203.419,66.883c-4.438,0-8.049,3.611-8.049,8.051c0,4.436,3.611,8.047,8.049,8.047                     s8.047-3.611,8.047-8.047C211.466,70.494,207.856,66.883,203.419,66.883z"/>
            </g>
        </g>
        <g>
            <g>
                <path fill="#FFFFFF" d="M254.657,91.74c-0.285-0.541-3.104-5.282-14.739-5.285c-11.633,0.003-14.456,4.742-14.739,5.285                     l-0.189,0.361v3.84h29.855v-3.84L254.657,91.74z"/>
            </g>
            <g>
                <path fill="#FFFFFF" d="M239.918,66.883c-4.437,0-8.049,3.611-8.049,8.051c0.001,4.436,3.612,8.047,8.049,8.047                     c4.439,0,8.048-3.611,8.048-8.047C247.966,70.494,244.357,66.883,239.918,66.883z"/>
            </g>
        </g>
        <g>
            <path fill="#005EA5" d="M264.281,117.432c-7.884,0-18.502-11.986-19.806-16.372c-2.224-7.499-14.833-48.281-14.63-49.769                 c1.034-7.582,11.66-5.471,15.276,2.76c3.854,8.758,14.357,29.131,14.357,29.131l9.801-7.162"/>
            <path fill="#005EA5" d="M258.162,117.432c-7.884,0-12.383-11.986-13.687-16.372c-2.224-7.499-14.833-48.281-14.631-49.769                 c1.035-7.582,11.658-5.471,15.277,2.76c3.854,8.758,14.357,29.131,14.357,29.131l9.8-7.162"/>

                <path fill="none" stroke="#FFFFFF" stroke-width="7.0025" stroke-linecap="round" stroke-linejoin="round" stroke-miterlimit="10" d="                 M269.279,76.02l-9.8,7.162c0,0-10.504-20.373-14.357-29.131c-3.619-8.23-14.242-10.342-15.277-2.76                 c-0.202,1.487,12.407,42.27,14.631,49.769c1.304,4.386,5.803,16.372,13.687,16.372"/>
        </g>
    </g>
    <g>

            <polyline fill="none" stroke="#FFFFFF" stroke-width="7.0025" stroke-linecap="round" stroke-linejoin="round" stroke-miterlimit="10" points="             82.428,36.707 96.707,30.632 120.946,61.262 112.423,100.283 124.68,126.102       "/>
        <g>
            <g>
                <path fill="#A9C7E0" d="M49.962,96.428c-25.622,0-46.467-20.845-46.467-46.466S24.34,3.496,49.962,3.496                     c25.621,0,46.466,20.845,46.466,46.466S75.583,96.428,49.962,96.428z"/>
                <path fill="#005EA5" d="M49.962,6.992c23.732,0,42.97,19.238,42.97,42.97c0,23.73-19.237,42.97-42.97,42.97                     c-23.73,0-42.971-19.239-42.971-42.97C6.991,26.23,26.231,6.992,49.962,6.992 M49.962,0C22.412,0,0,22.413,0,49.962                     s22.412,49.962,49.962,49.962c27.549,0,49.962-22.413,49.962-49.962S77.511,0,49.962,0L49.962,0z"/>
            </g>
            <circle fill="#005EA5" cx="49.961" cy="49.962" r="10.132"/>
            <path fill="none" stroke="#005EA5" stroke-width="3.178" stroke-miterlimit="10" d="M67.543,49.962                 c0,9.71-7.871,17.582-17.581,17.582c-9.713,0-17.582-7.872-17.582-17.582s7.869-17.583,17.582-17.583                 C59.672,32.379,67.543,40.252,67.543,49.962z"/>
        </g>
        <g>
            <path fill="#005EA5" d="M92.555,113.363c-7.884,0-18.502-11.986-19.806-16.373c-2.224-7.498-14.833-48.281-14.63-49.768                 c1.034-7.582,11.66-5.471,15.276,2.759c3.854,8.759,14.357,29.132,14.357,29.132l9.801-7.162"/>
            <path fill="#005EA5" d="M86.436,113.363c-7.884,0-12.383-11.986-13.687-16.373c-2.224-7.498-14.833-48.281-14.631-49.768                 c1.035-7.582,11.658-5.471,15.277,2.759c3.854,8.759,14.357,29.132,14.357,29.132l9.8-7.162"/>

                <path fill="none" stroke="#FFFFFF" stroke-width="7.0025" stroke-linecap="round" stroke-linejoin="round" stroke-miterlimit="10" d="                 M97.553,71.951l-9.8,7.162c0,0-10.504-20.373-14.357-29.132c-3.619-8.229-14.242-10.341-15.277-2.759                 c-0.202,1.486,12.407,42.27,14.631,49.768c1.304,4.387,5.803,16.373,13.687,16.373"/>
        </g>
    </g>
</g>
</svg>
