<svg id="Layer_1" data-name="Layer 1" xmlns="http://www.w3.org/2000/svg" viewBox="0 0 193.79 161.51"><defs><style>.cls-1{fill:#0b0b0b;}.cls-2{fill:#fff;}.cls-3{fill:#7faed2;}.cls-4{fill:#005ea5;}.cls-5,.cls-6{fill:none;stroke-miterlimit:10;stroke-width:5px;}.cls-5{stroke:#e50020;}.cls-6{stroke:#2faf22;}</style></defs><title>too-close-photo-blue</title><path class="cls-1" d="M182.83,137.24l4.84-29.59a2.13,2.13,0,0,0-.45-1.69L170.71,85.12a2.49,2.49,0,0,0-1.09-.7L163,82.09v4.71l4.53,1.58L183.09,108l-4.78,29.41a1.74,1.74,0,0,0,.22,1.18L191.83,165h5Z" transform="translate(-3 -3.49)"/><path class="cls-2" d="M136.37,101.31c0.4-2.92,2.16-5,4.7-5.49,3.69-.71,8,2,10.6,6.74,3.74,6.63,8.14,14.44,10.2,18.44h0.06l1.08-.7V42H107v79h34.76C136.21,102,136.27,102,136.37,101.31Z" transform="translate(-3 -3.49)"/><path class="cls-3" d="M136.75,101c0.4-2.92,2.14-4.95,4.67-5.43,3.67-.71,7.9,2,10.53,6.66,3.25,5.8,7,12.75,9.25,16.75H162V95.35s-10.89-5-27-5-27,5-27,5V119h33.63C136.6,102,136.66,101.73,136.75,101Z" transform="translate(-3 -3.49)"/><ellipse class="cls-3" cx="131.37" cy="64.08" rx="16.11" ry="16.22"/><path class="cls-4" d="M145.51,131.12c-1.6-5.25-2.9-9.12-4-13.12H108V43h52v75.1c1,1,.9,2,1.31,2.69l2.69-1.86V31.57c0-1.63-1.1-3.57-2.74-3.57H107.62A4.17,4.17,0,0,0,104,31.57V133.48c0,1.63,2,2.52,3.62,2.52H147C146.59,135,146.09,133,145.51,131.12ZM129.34,35h11.21a1,1,0,0,1,0,2H129.34A1,1,0,0,1,129.34,35Zm5.61,96.25a4.59,4.59,0,1,1,4.59-4.59A4.59,4.59,0,0,1,134.94,131.25Z" transform="translate(-3 -3.49)"/><path class="cls-1" d="M81.4,137.24l4.84-29.59A2.13,2.13,0,0,0,85.8,106L69.29,85.12a1.88,1.88,0,0,0-.88-0.7L62,82.09v4.71l4.32,1.58L81.77,108,76.94,137.4a1.72,1.72,0,0,0,.19,1.18L90.41,165h5Z" transform="translate(-3 -3.49)"/><path class="cls-2" d="M35,100.55a5.87,5.87,0,0,1,4.7-5.37c3.69-.71,8,1.86,10.6,6.56,3.74,6.63,8.14,15.25,10.2,18.25h0.06l0.42-.21V42H6v78H40.42C34.86,102,34.92,101.28,35,100.55Z" transform="translate(-3 -3.49)"/><path class="cls-3" d="M35,100.7c0.4-2.92,2.16-5,4.7-5.44,3.69-.71,8,2,10.64,6.67,0.52,0.93,1.64,1.88,1.64,2.84V90.66a2.89,2.89,0,0,0-1.56-2.6s-6.7-4.28-17.3-4.28A35.47,35.47,0,0,0,15.7,88.06a3,3,0,0,0-1.7,2.6v29.78c0,0.93,0,1.73,1,1.78l16.4-1.15c0.93,0,2.49,0,3.42,0l6,0.43C34.84,101.9,34.92,101.45,35,100.7Z" transform="translate(-3 -3.49)"/><path class="cls-4" d="M43.92,131.12c-1.6-5.25-2.9-9.12-4-13.12H8V43H59v74.72c1,1,.9,2,1.31,2.69L63,118.56V31.19A3.5,3.5,0,0,0,59.68,28H6a3.23,3.23,0,0,0-3,3.19V133.1A3,3,0,0,0,6,136H45.4C45,135,44.5,133,43.92,131.12ZM27.75,35H39a1,1,0,0,1,0,2H27.75A1,1,0,0,1,27.75,35Zm5.61,95.87a4.59,4.59,0,1,1,4.59-4.59A4.59,4.59,0,0,1,33.35,130.87Z" transform="translate(-3 -3.49)"/><line class="cls-5" x1="138.51" y1="1.77" x2="124.59" y2="15.69"/><line class="cls-5" x1="124.59" y1="1.77" x2="138.51" y2="15.69"/><polyline class="cls-6" points="38.64 3.09 27.35 14.37 21.61 8.63"/><circle class="cls-3" cx="30.12" cy="65.82" r="9.8"/><path class="cls-1" d="M57.93,151.59c-7.52,0-11.19-10.38-12.14-13.56-0.37-1.25-1.14-3.78-2.11-6.95C34.84,102,34.91,101.55,35,100.7c0.4-2.92,2.16-5,4.7-5.44,3.69-.71,8,2,10.6,6.67,3.75,6.65,8.16,14.66,10.21,18.39L64,118.07a2.22,2.22,0,1,1,2.41,3.72l-5.48,3.55a2.22,2.22,0,0,1-3.15-.8c-0.06-.11-6.3-11.51-11.33-20.44-2-3.5-4.64-4.73-5.9-4.49-0.22,0-.85.16-1.1,1.42,0.53,2.64,5.87,20.19,8.47,28.75,1,3.18,1.74,5.72,2.11,7,1.15,3.86,4.1,10.39,7.88,10.39A2.22,2.22,0,1,1,57.93,151.59Z" transform="translate(-3 -3.49)"/><path class="cls-1" d="M159.36,151.59c-7.52,0-11.19-10.38-12.14-13.56-0.37-1.25-1.14-3.78-2.11-6.95-8.85-29.06-8.78-29.53-8.67-30.38,0.4-2.92,2.16-5,4.7-5.44,3.69-.71,8,2,10.6,6.67,3.75,6.65,8.16,14.66,10.21,18.39l3.47-2.25a2.22,2.22,0,0,1,2.41,3.72l-5.48,3.55a2.22,2.22,0,0,1-3.15-.8c-0.06-.11-6.3-11.51-11.33-20.44-2-3.5-4.64-4.73-5.9-4.49-0.22,0-.85.16-1.1,1.42,0.53,2.64,5.87,20.19,8.47,28.75,1,3.18,1.74,5.72,2.11,7,1.15,3.86,4.1,10.39,7.88,10.39A2.22,2.22,0,0,1,159.36,151.59Z" transform="translate(-3 -3.49)"/></svg>