<svg xmlns="http://www.w3.org/2000/svg" xmlns:xlink="http://www.w3.org/1999/xlink" version="1.1" x="0px" y="0px" viewBox="0 0 512 640" enable-background="new 0 0 512 512" xml:space="preserve"><g><g><g><path d="M217.7,394.5c-17.8,0-35.5-4.4-51.3-12.7c-15.9,8.3-33.5,12.7-51.3,12.7c-61.1,0-110.8-49.7-110.8-110.8     c0-41,22.8-78.5,58.6-97.7c-4.8-12.6-7.2-25.8-7.2-39.2C55.5,85.7,105.3,36,166.4,36s110.8,49.7,110.8,110.8     c0,13.5-2.4,26.6-7.2,39.2c35.8,19.2,58.6,56.7,58.6,97.7C328.5,344.8,278.8,394.5,217.7,394.5z M166.4,363.1l4.1,2.4     c14.4,8.3,30.7,12.7,47.3,12.7c52.1,0,94.5-42.4,94.5-94.5c0-37.2-22-71.1-56.1-86.3l-7.6-3.4l3.5-7.5c5.9-12.6,8.8-26,8.8-39.7     c0-52.1-42.4-94.5-94.5-94.5s-94.5,42.4-94.5,94.5c0,13.7,3,27.1,8.8,39.7l3.5,7.5l-7.6,3.4c-34.1,15.2-56.1,49.1-56.1,86.3     c0,52.1,42.4,94.5,94.5,94.5c16.5,0,32.9-4.4,47.3-12.7L166.4,363.1z"/></g></g><g><g><path d="M445.9,419c-9.3,0-18.5-2.1-26.9-6.2c-8.4,4.1-17.6,6.2-26.9,6.2c-34.2,0-61.9-27.8-61.9-61.9     c0-21.8,11.5-41.8,29.8-52.9c-2-6.1-2.9-12.4-2.9-18.8c0-34.2,27.8-61.9,61.9-61.9s61.9,27.8,61.9,61.9c0,6.4-1,12.7-2.9,18.8     c18.4,11.1,29.8,31.2,29.8,52.9C507.8,391.2,480,419,445.9,419z M419,394.2l4.1,2.4c7,4,14.8,6.2,22.8,6.2     c25.2,0,45.6-20.5,45.6-45.6c0-18-10.6-34.3-27.1-41.7l-7.6-3.4l3.5-7.5c2.8-6.1,4.3-12.5,4.3-19.2c0-25.2-20.5-45.6-45.6-45.6     c-25.2,0-45.6,20.5-45.6,45.6c0,6.6,1.4,13.1,4.3,19.2l3.5,7.5l-7.6,3.4c-16.5,7.3-27.1,23.7-27.1,41.7     c0,25.2,20.5,45.6,45.6,45.6c8,0,15.9-2.1,22.8-6.2L419,394.2z"/></g></g><g><g><rect x="158.2" y="231" width="16.3" height="245"/></g></g><g><g><rect x="410.8" y="337.5" width="16.3" height="138.5"/></g></g><g><g><polygon points="166.4,308.3 119.9,261.8 131.4,250.2 166.4,285.2 201.3,250.2 212.9,261.8    "/></g></g><g><g><polygon points="166.4,365.3 119.9,318.8 131.4,307.3 166.4,342.3 201.3,307.3 212.9,318.8    "/></g></g><g><g><rect x="379.6" y="361.9" transform="matrix(0.7071 0.7071 -0.7071 0.7071 379.6319 -176.3429)" width="46.1" height="16.3"/></g></g><g><g><rect x="3.4" y="459.7" width="505.2" height="16.3"/></g></g></g><text x="0" y="527" fill="#000000" font-size="5px" font-weight="bold" font-family="'Helvetica Neue', Helvetica, Arial-Unicode, Arial, Sans-serif">Created by ProSymbols</text><text x="0" y="532" fill="#000000" font-size="5px" font-weight="bold" font-family="'Helvetica Neue', Helvetica, Arial-Unicode, Arial, Sans-serif">from the Noun Project</text></svg>